<svg xmlns="http://www.w3.org/2000/svg" xmlns:xlink="http://www.w3.org/1999/xlink" width="430" height="285" viewBox="0 0 430 285">
  <defs>
    <clipPath id="clip-path">
      <rect width="24.485" height="2" fill="none"/>
    </clipPath>
    <clipPath id="clip-path-3">
      <rect width="18.095" height="1.424" fill="none"/>
    </clipPath>
  </defs>
  <g id="Group_9698" data-name="Group 9698" transform="translate(-813 -749)">
    <g id="Ellipse_5" data-name="Ellipse 5" transform="translate(813 749)" fill="#e4f0ff" stroke="#707070" stroke-width="1">
      <ellipse cx="215" cy="142.5" rx="215" ry="142.5" stroke="none"/>
      <ellipse cx="215" cy="142.5" rx="214.5" ry="142" fill="none"/>
    </g>
    <rect id="Rectangle_5987" data-name="Rectangle 5987" width="122.131" height="75.963" transform="translate(925.014 844.129)" fill="#09083c"/>
    <path id="Rectangle_5988" data-name="Rectangle 5988" d="M4.894,0h108a4.895,4.895,0,0,1,4.895,4.895V65.229a4.894,4.894,0,0,1-4.894,4.894h-108A4.894,4.894,0,0,1,0,65.229V4.894A4.894,4.894,0,0,1,4.894,0Z" transform="translate(927.155 847.048)" fill="#70c0fd"/>
    <path id="Path_10923" data-name="Path 10923" d="M865.562,660.973v-7.538a.752.752,0,0,0-.674-.811H748.451a.752.752,0,0,0-.674.811v47.414Z" transform="translate(179.379 194.424)" fill="#97cef7" opacity="0.5" style="mix-blend-mode: multiply;isolation: isolate"/>
    <g id="Group_9676" data-name="Group 9676" transform="translate(952.727 795.915)">
      <ellipse id="Ellipse_6" data-name="Ellipse 6" cx="19.298" cy="19.338" rx="19.298" ry="19.338" fill="#09083c"/>
      <ellipse id="Ellipse_7" data-name="Ellipse 7" cx="16.524" cy="16.558" rx="16.524" ry="16.558" transform="translate(2.774 2.78)" fill="#fff"/>
      <g id="Group_9675" data-name="Group 9675" transform="translate(1.527 1.655)">
        <rect id="Rectangle_5989" data-name="Rectangle 5989" width="0.469" height="6.091" transform="translate(0 17.826) rotate(-90)" fill="#09083c"/>
        <rect id="Rectangle_5990" data-name="Rectangle 5990" width="0.469" height="6.091" transform="translate(29.487 17.826) rotate(-90)" fill="#09083c"/>
        <rect id="Rectangle_5991" data-name="Rectangle 5991" width="0.468" height="6.104" transform="translate(17.511)" fill="#09083c"/>
        <rect id="Rectangle_5992" data-name="Rectangle 5992" width="0.468" height="6.104" transform="translate(17.511 29.43)" fill="#09083c"/>
        <path id="Path_10950" data-name="Path 10950" d="M1206.814,319.643a.5.5,0,1,1-.5-.505A.5.5,0,0,1,1206.814,319.643Z" transform="translate(-1188.539 -301.961)" fill="#09083c"/>
        <g id="Group_9673" data-name="Group 9673" transform="translate(8.484 8.377)">
          <path id="Path_10951" data-name="Path 10951" d="M1124.424,237.815a.224.224,0,0,1-.159-.066l-9.061-9.079a.226.226,0,1,1,.319-.32l9.06,9.079a.226.226,0,0,1-.16.386Z" transform="translate(-1115.138 -228.284)" fill="#09083c"/>
        </g>
        <g id="Group_9674" data-name="Group 9674" transform="translate(17.665 17.682)">
          <path id="Path_10952" data-name="Path 10952" d="M1212.938,333.53a.163.163,0,0,1-.082-.1l-2.929-8.865a.164.164,0,1,1,.311-.1l2.929,8.865a.164.164,0,0,1-.1.208A.162.162,0,0,1,1212.938,333.53Z" transform="translate(-1209.919 -324.354)" fill="#09083c"/>
        </g>
      </g>
    </g>
    <rect id="Rectangle_5993" data-name="Rectangle 5993" width="9.421" height="1.926" transform="translate(959.781 857.06)" fill="#fff"/>
    <rect id="Rectangle_5994" data-name="Rectangle 5994" width="9.421" height="1.926" transform="translate(974.846 857.06)" fill="#fff"/>
    <g id="Group_9694" data-name="Group 9694" transform="translate(959.781 862.002)">
      <g id="Repeat_Grid_1" data-name="Repeat Grid 1" clip-path="url(#clip-path)">
        <g id="Group_9693" data-name="Group 9693" transform="translate(-975.553 -868.785)">
          <rect id="Rectangle_6018" data-name="Rectangle 6018" width="6.962" height="1.424" transform="translate(975.553 868.785)" fill="#fff"/>
          <rect id="Rectangle_6017" data-name="Rectangle 6017" width="6.962" height="1.424" transform="translate(986.686 868.785)" fill="#fff"/>
        </g>
      </g>
    </g>
    <g id="Repeat_Grid_2" data-name="Repeat Grid 2" transform="translate(959.781 866.943)" clip-path="url(#clip-path)">
      <g id="Group_9695" data-name="Group 9695" transform="translate(-975.553 -868.785)">
        <g id="Repeat_Grid_1-2" data-name="Repeat Grid 1" transform="translate(975.553 868.785)" clip-path="url(#clip-path-3)">
          <g id="Group_9693-2" data-name="Group 9693" transform="translate(-975.553 -868.785)">
            <rect id="Rectangle_6018-2" data-name="Rectangle 6018" width="6.962" height="1.424" transform="translate(975.553 868.785)" fill="#fff"/>
            <rect id="Rectangle_6017-2" data-name="Rectangle 6017" width="6.962" height="1.424" transform="translate(986.686 868.785)" fill="#fff"/>
          </g>
        </g>
      </g>
    </g>
    <g id="Repeat_Grid_3" data-name="Repeat Grid 3" transform="translate(959.781 871.884)" clip-path="url(#clip-path)">
      <g id="Group_9695-2" data-name="Group 9695" transform="translate(-975.553 -868.785)">
        <g id="Repeat_Grid_1-3" data-name="Repeat Grid 1" transform="translate(975.553 868.785)" clip-path="url(#clip-path-3)">
          <g id="Group_9693-3" data-name="Group 9693" transform="translate(-975.553 -868.785)">
            <rect id="Rectangle_6018-3" data-name="Rectangle 6018" width="6.962" height="1.424" transform="translate(975.553 868.785)" fill="#fff"/>
            <rect id="Rectangle_6017-3" data-name="Rectangle 6017" width="6.962" height="1.424" transform="translate(986.686 868.785)" fill="#fff"/>
          </g>
        </g>
      </g>
    </g>
    <g id="Group_9678" data-name="Group 9678" transform="translate(1069.813 838.511)">
      <rect id="Rectangle_5995" data-name="Rectangle 5995" width="4.554" height="18.461" transform="translate(8.234 13.745)" fill="#142666"/>
      <rect id="Rectangle_5996" data-name="Rectangle 5996" width="3.627" height="18.423" transform="translate(52.766 28.362) rotate(90)" fill="#70c0fd"/>
      <rect id="Rectangle_5997" data-name="Rectangle 5997" width="3.627" height="18.423" transform="translate(55.217 24.723) rotate(90)" fill="#142666"/>
      <rect id="Rectangle_5998" data-name="Rectangle 5998" width="3.627" height="18.423" transform="translate(51.405 21.176) rotate(90)" fill="#fff"/>
      <rect id="Rectangle_5999" data-name="Rectangle 5999" width="4.657" height="25.625" transform="translate(13.397 6.308)" fill="#fff"/>
      <rect id="Rectangle_6000" data-name="Rectangle 6000" width="4.289" height="22.8" transform="translate(3.404 9.133)" fill="#70c0fd"/>
      <path id="Path_10953" data-name="Path 10953" d="M2420.888,681.459l-3.854,1.886-9.982-20.489,3.854-1.886Z" transform="translate(-2388.995 -651.624)" fill="#70c0fd"/>
      <rect id="Rectangle_6001" data-name="Rectangle 6001" width="73.665" height="2.086" transform="translate(0 31.804)" fill="#4188e4"/>
      <g id="Group_9677" data-name="Group 9677" transform="translate(55.953)">
        <path id="Path_10954" data-name="Path 10954" d="M2806.74,622.779a4.983,4.983,0,0,0-.429-1.758,7.211,7.211,0,0,0-1.46-1.646,9.135,9.135,0,0,1-2.178-3.471,23.824,23.824,0,0,0-1-3.031c-.293-.581-.693-1.1-1.026-1.658-.787-1.321-1.216-2.881-2.283-3.986a4.791,4.791,0,0,0,1.082,3.79,6.4,6.4,0,0,1,.768.934,4.824,4.824,0,0,1,.373,2.147,9.432,9.432,0,0,0,1.127,3.946c.7,1.286,1.712,2.432,2.086,3.848.281,1.061.2,2.252.8,3.172a.809.809,0,0,1,.155.318.694.694,0,0,1-.012.2l-.04.256c-.136.869-.277,1.974.469,2.624a.966.966,0,0,0,1.555-.138,3.971,3.971,0,0,0,.313-2.163C2806.988,625.034,2806.867,623.9,2806.74,622.779Z" transform="translate(-2798.308 -603.089)" fill="#4188e4"/>
        <path id="Path_10955" data-name="Path 10955" d="M2860.408,583.474c-.29-1.006-.741-1.964-.967-2.986a14.11,14.11,0,0,1-.222-3.032q0-1.669,0-3.338a12.6,12.6,0,0,0-.116-2.072c-.246-1.47-1.01-2.829-1.14-4.314-.056-.642.009-1.291-.062-1.932a3.038,3.038,0,0,0-.3-1.064.474.474,0,0,0-.851.024,4.327,4.327,0,0,0-.457,2.534,10.432,10.432,0,0,0,.481,1.5c.744,2.214.349,4.664.925,6.928a10.315,10.315,0,0,1,.467,2.058c.073,1.686-1.186,3.226-1.071,4.909.095,1.38,1.087,2.523,1.5,3.842.233.738.283,1.527.533,2.26.194.569.645,1.261,1.346,1.088.666-.164.465-.707.435-1.226A22.8,22.8,0,0,0,2860.408,583.474Z" transform="translate(-2850.632 -564.483)" fill="#70c0fd"/>
        <path id="Path_10956" data-name="Path 10956" d="M2888.644,593.75a7.974,7.974,0,0,1-.044-1.566,9.126,9.126,0,0,1,.36-1.274,11.438,11.438,0,0,0,.348-2.455l.308-4.506a58.8,58.8,0,0,1,.757-6.976,3.058,3.058,0,0,0-.03-1.913c-.061-.123-.179-.253-.31-.212-.093.029-.139.131-.173.223-.954,2.594-1.315,5.386-2.38,7.935a10.187,10.187,0,0,0-.684,1.861,10.56,10.56,0,0,0-.051,2.379,11.234,11.234,0,0,1-.4,3.384,14.008,14.008,0,0,0-.476,1.723,9.072,9.072,0,0,0,.053,2.225,34.168,34.168,0,0,1,.137,4.286c-.026.84.684.818,1.154.3a2.4,2.4,0,0,0,.438-1.207C2888.024,596.483,2888.734,595.35,2888.644,593.75Z" transform="translate(-2877.344 -573.837)" fill="#4188e4"/>
        <path id="Path_10957" data-name="Path 10957" d="M2829.536,748.708c-.627-1.008-1.877-1.581-2.278-2.7-.1-.284-.142-.59-.267-.866a2.812,2.812,0,0,0-1.525-1.238.131.131,0,0,0-.185.118h0a.448.448,0,0,0,.194.378,2.511,2.511,0,0,1,1,1.364c.191.655.108,1.374.345,2.013.2.537.61.976.8,1.516a8.587,8.587,0,0,1,.24,1.549,1.635,1.635,0,0,0,.788,1.285C2830.371,752.919,2829.942,749.359,2829.536,748.708Z" transform="translate(-2822.669 -726.516)" fill="#70c0fd"/>
        <path id="Path_10958" data-name="Path 10958" d="M2913.927,727.333a4.253,4.253,0,0,1-.143,1.447,4.39,4.39,0,0,1-.521.774c-.633.895-.862,2.163-1.834,2.666a.331.331,0,0,1-.207.05.317.317,0,0,1-.2-.208,2.751,2.751,0,0,1,.188-1.764.434.434,0,0,0,0-.31c-.053-.1-.175-.148-.259-.229a.755.755,0,0,1-.118-.658,14.905,14.905,0,0,1,.347-1.7,2.98,2.98,0,0,1,.364-.91,4.036,4.036,0,0,1,.768-.76,9.1,9.1,0,0,0,2.656-3.921,2.57,2.57,0,0,1,.445-.929.741.741,0,0,1,.928-.189c.2.142-.623,1.466-.719,1.625a5.239,5.239,0,0,0-.433,1.353C2914.807,724.9,2914,726.009,2913.927,727.333Z" transform="translate(-2899.913 -705.473)" fill="#4188e4"/>
        <path id="Path_10959" data-name="Path 10959" d="M2897.225,687.05a5.991,5.991,0,0,0,.42-1.431c.066-.55-.021-1.113.073-1.659a18.194,18.194,0,0,1,.733-2,13.256,13.256,0,0,0,.27-1.518c.251-1.45.933-2.866.737-4.325-.042-.317-.186-.687-.5-.741a.607.607,0,0,0-.618.492,2.654,2.654,0,0,0,0,.864,3.567,3.567,0,0,1-.639,2.289c-.448.634-1.1,1.111-1.5,1.774a10.339,10.339,0,0,0-.813,2.724c-.5,1.826-1.759,3.419-1.989,5.3a1.818,1.818,0,0,0,.775,1.956C2896.17,691.634,2896.772,688.22,2897.225,687.05Z" transform="translate(-2884.168 -664.627)" fill="#70c0fd"/>
        <path id="Path_10960" data-name="Path 10960" d="M2849.827,810.169h-4.582a.486.486,0,0,0-.472.6l1.67,7.043a.486.486,0,0,0,.472.374h5.5a.486.486,0,0,0,.472-.374l1.67-7.043a.486.486,0,0,0-.472-.6Z" transform="translate(-2840.261 -786.372)" fill="#fff"/>
      </g>
      <rect id="Rectangle_6002" data-name="Rectangle 6002" width="4.289" height="1.479" transform="translate(3.404 10.928)" fill="#fff"/>
      <rect id="Rectangle_6003" data-name="Rectangle 6003" width="2.554" height="7.043" transform="translate(9.234 15.307)" fill="#97cef7"/>
      <rect id="Rectangle_6004" data-name="Rectangle 6004" width="4.657" height="1.113" transform="translate(13.397 9.133)" fill="#97cef7"/>
      <rect id="Rectangle_6005" data-name="Rectangle 6005" width="4.657" height="1.459" transform="translate(13.397 28.35)" fill="#97cef7"/>
    </g>
    <g id="Group_9681" data-name="Group 9681" transform="translate(1115.878 901.749)">
      <path id="Path_10961" data-name="Path 10961" d="M2968.539,1622.709l2.506,35.817h-1.252l-3.968-35.429Z" transform="translate(-2939.711 -1583.449)" fill="#07085b"/>
      <path id="Path_10962" data-name="Path 10962" d="M2698.725,1622.709l-2.506,35.817h1.253l3.968-35.429Z" transform="translate(-2696.219 -1583.449)" fill="#07085b"/>
      <path id="Path_10963" data-name="Path 10963" d="M2780.243,1217.887s-20.033-.593-21.329-.5-2.5,4.261-2.5,4.261-5.852,21.71-5.735,22.307-5.459,14.587-5.459,14.587,4.81-.128,5.022,0,18.6-1.578,18.855-1.749a23.37,23.37,0,0,0,1.234-3.54c.042-.17,1.447-12.625,1.447-12.625l.724-6.867s2.767-5.892,2.809-5.91,2.6-5.179,2.767-5.435,2.809-3.114,2.894-3.37S2780.243,1217.887,2780.243,1217.887Z" transform="translate(-2740.479 -1217.376)" fill="#57ace5"/>
      <path id="Path_10964" data-name="Path 10964" d="M2780.244,1219.34s-6.906-.2-12.872-.355c2.318,1.364,3.618,5.18,2.653,11.967-.82,5.768-1.731,12.028-5.363,19.535-1.871,3.866-9.925,1.7-16.527,2.083-1.423,3.692-2.91,7.424-2.91,7.424s4.81-.128,5.022,0,18.6-1.578,18.856-1.749a23.339,23.339,0,0,0,1.234-3.54c.043-.171,1.447-12.625,1.447-12.625l.724-6.867s2.767-5.892,2.809-5.91,2.6-5.18,2.767-5.435,2.809-3.114,2.894-3.37S2780.244,1219.34,2780.244,1219.34Z" transform="translate(-2740.479 -1218.829)" fill="#57ace5" opacity="0.3" style="mix-blend-mode: multiply;isolation: isolate"/>
      <g id="Group_9680" data-name="Group 9680" transform="translate(1.084 0.536)">
        <g id="Group_9679" data-name="Group 9679">
          <path id="Path_10965" data-name="Path 10965" d="M2707.416,1264.307h0a1.245,1.245,0,0,1,1.157-1.322c2.14-.146,6.77-.477,11.531-.928,9.127-.866,12.427-1.574,13.607-1.945a1.232,1.232,0,0,0,.825-.874,47.634,47.634,0,0,0,.665-6.138c.6-8.406,1.58-22.266,10.215-29.876a1.243,1.243,0,0,1,1.806.18h0a1.245,1.245,0,0,1-.161,1.692c-7.868,6.909-8.771,19.648-9.376,28.181-.345,4.864-.558,7.251-1.62,8.362-.512.536-1.466,1.533-15.343,2.866-4.923.473-9.769.82-11.982.97A1.244,1.244,0,0,1,2707.416,1264.307Zm26.909-4.448Z" transform="translate(-2707.413 -1222.915)" fill="#026eaf"/>
        </g>
      </g>
    </g>
    <path id="Path_10966" data-name="Path 10966" d="M2496.135,1879.474l-.759,6.1-4.084.318.063-5.661Z" transform="translate(-1395.263 -913.596)" fill="#ffc0bb"/>
    <g id="Group_9685" data-name="Group 9685" transform="translate(1089.366 971.374)">
      <path id="Path_10967" data-name="Path 10967" d="M2423.035,1980.831l11.158.075a.429.429,0,0,0,.438-.43l0-.322a.446.446,0,0,0-.445-.435l-11.158-.075a.429.429,0,0,0-.438.429l0,.322A.446.446,0,0,0,2423.035,1980.831Z" transform="translate(-2422.579 -1975.437)" fill="#fff"/>
      <path id="Path_10968" data-name="Path 10968" d="M2433.968,1936.887l.428,3.3c.052.407-.177.775-.482.773l-10.611-.072a.789.789,0,0,1-.7-.49,1.411,1.411,0,0,1,.284-1.47c.938-1.309,4.057-1.609,5.574-2.721l4.943.033A.659.659,0,0,1,2433.968,1936.887Z" transform="translate(-2422.505 -1936.211)" fill="#ea426e"/>
      <g id="Group_9682" data-name="Group 9682" transform="translate(4.472 0.283)">
        <path id="Path_10969" data-name="Path 10969" d="M2470.926,1940.776h0a.218.218,0,0,0,.058-.269,2.088,2.088,0,0,0-2.2-1.342.182.182,0,0,0-.113.215v0c.013.1.083.165.157.153a1.8,1.8,0,0,1,1.92,1.164A.122.122,0,0,0,2470.926,1940.776Z" transform="translate(-2468.672 -1939.137)" fill="#fff"/>
      </g>
      <g id="Group_9683" data-name="Group 9683" transform="translate(3.373 0.701)">
        <path id="Path_10970" data-name="Path 10970" d="M2459.587,1945.086h0a.217.217,0,0,0,.058-.269,2.087,2.087,0,0,0-2.2-1.342c-.077.012-.127.112-.114.215v0c.014.1.083.165.157.153a1.8,1.8,0,0,1,1.92,1.164A.122.122,0,0,0,2459.587,1945.086Z" transform="translate(-2457.333 -1943.447)" fill="#fff"/>
      </g>
      <g id="Group_9684" data-name="Group 9684" transform="translate(2.352 1.09)">
        <path id="Path_10971" data-name="Path 10971" d="M2449.041,1949.108h0a.218.218,0,0,0,.058-.269,2.088,2.088,0,0,0-2.2-1.342.182.182,0,0,0-.113.215v0c.014.1.083.165.157.153a1.8,1.8,0,0,1,1.92,1.164A.122.122,0,0,0,2449.041,1949.108Z" transform="translate(-2446.787 -1947.469)" fill="#fff"/>
      </g>
      <path id="Path_10972" data-name="Path 10972" d="M2511.057,1958.16c.813-2.661,2.251-2.946,3.039-2.879l.275,2.125c.052.407-.177.775-.482.773Z" transform="translate(-2502.48 -1953.426)" fill="#e87b50" opacity="0.3" style="mix-blend-mode: multiply;isolation: isolate"/>
    </g>
    <path id="Path_10973" data-name="Path 10973" d="M2729.63,1357.434l-.675,7.037,2.681.512,1.477-2.789-.242-3.695-2.086-1.452Z" transform="translate(-1609.907 -441.77)" fill="#f9b5b2"/>
    <path id="Path_10974" data-name="Path 10974" d="M2738.643,1246.541s-2.722,7.1-2.722,11.09a5.544,5.544,0,0,0,3.483.682c2.057-.256.328-8.36.4-8.573A26.625,26.625,0,0,0,2738.643,1246.541Z" transform="translate(-1616.197 -341.967)" fill="#f4a640"/>
    <path id="Path_10975" data-name="Path 10975" d="M2550.435,1880.817l-1.806,5.89-4.156.029.724-4.3Z" transform="translate(-1443.293 -914.808)" fill="#ffc0bb"/>
    <path id="Path_10976" data-name="Path 10976" d="M2640.561,1366.16l-5,7.551-6.642-1.312-11.272-8.427,1.977-2.931s10.563,6.344,11.461,6.522,3.349-5.56,3.349-5.56Z" transform="translate(-1509.383 -445.377)" fill="#f9b5b2"/>
    <g id="Group_9689" data-name="Group 9689" transform="translate(1094.752 971.483)">
      <path id="Path_10977" data-name="Path 10977" d="M2478.649,1981.959l11.158.075a.429.429,0,0,0,.438-.43l0-.322a.446.446,0,0,0-.445-.436l-11.158-.075a.429.429,0,0,0-.438.429l0,.322A.445.445,0,0,0,2478.649,1981.959Z" transform="translate(-2478.193 -1976.565)" fill="#fff"/>
      <path id="Path_10978" data-name="Path 10978" d="M2489.583,1938.014l.428,3.3c.053.407-.176.775-.482.773l-10.611-.072a.789.789,0,0,1-.7-.49,1.411,1.411,0,0,1,.284-1.47c.938-1.309,4.057-1.609,5.574-2.721l4.943.033A.659.659,0,0,1,2489.583,1938.014Z" transform="translate(-2478.12 -1937.339)" fill="#f76390"/>
      <g id="Group_9686" data-name="Group 9686" transform="translate(4.472 0.283)">
        <path id="Path_10979" data-name="Path 10979" d="M2526.541,1941.9h0a.218.218,0,0,0,.058-.269,2.087,2.087,0,0,0-2.2-1.342c-.077.012-.127.112-.114.215v0c.013.1.083.165.157.153a1.8,1.8,0,0,1,1.92,1.164A.123.123,0,0,0,2526.541,1941.9Z" transform="translate(-2524.286 -1940.264)" fill="#fff"/>
      </g>
      <g id="Group_9687" data-name="Group 9687" transform="translate(3.373 0.701)">
        <path id="Path_10980" data-name="Path 10980" d="M2515.2,1946.213h0a.218.218,0,0,0,.058-.269,2.087,2.087,0,0,0-2.2-1.342c-.076.012-.127.112-.113.215v0c.013.1.083.165.157.153a1.8,1.8,0,0,1,1.92,1.164A.122.122,0,0,0,2515.2,1946.213Z" transform="translate(-2512.947 -1944.574)" fill="#fff"/>
      </g>
      <g id="Group_9688" data-name="Group 9688" transform="translate(2.352 1.09)">
        <path id="Path_10981" data-name="Path 10981" d="M2504.655,1950.235h0a.218.218,0,0,0,.058-.269,2.087,2.087,0,0,0-2.2-1.342.183.183,0,0,0-.114.215v0c.014.1.083.165.157.153a1.8,1.8,0,0,1,1.92,1.164A.122.122,0,0,0,2504.655,1950.235Z" transform="translate(-2502.401 -1948.596)" fill="#fff"/>
      </g>
      <path id="Path_10982" data-name="Path 10982" d="M2566.67,1959.287c.812-2.661,2.251-2.946,3.039-2.879l.275,2.125c.053.408-.176.776-.481.773Z" transform="translate(-2558.093 -1954.553)" fill="#e87b50" opacity="0.3" style="mix-blend-mode: multiply;isolation: isolate"/>
    </g>
    <path id="Path_10983" data-name="Path 10983" d="M2578.267,1501.906c-.568-5.289-6.833-5.374-6.833-5.374l-3.37-.293-.082-.716s-23.237-2.766-26.414,7.774-5.587,31.4-5.587,31.4a8.1,8.1,0,0,0,7.231,0s5.888-22.4,8.093-24.592,18.051-2.557,18.051-2.557S2578.833,1507.194,2578.267,1501.906Z" transform="translate(-1435.624 -566.537)" fill="#09083c"/>
    <path id="Path_10984" data-name="Path 10984" d="M2747.852,1239.482s.548-19.279,1.566-21.5,4.62-2.645,4.62-2.645,9.39-1.395,11.83.912c.182.173,4.427,5.806,3.749,32.527,0,0-8.063-4.436-21.764-6.71Z" transform="translate(-1626.973 -313.412)" fill="#feb546"/>
    <path id="Path_10985" data-name="Path 10985" d="M2823.88,1179.712v4.814a.688.688,0,0,1-.395.625,4.234,4.234,0,0,1-3.91.009.682.682,0,0,1-.33-.59v-4.348Z" transform="translate(-1691.453 -281.611)" fill="#ffc0bb"/>
    <path id="Path_10986" data-name="Path 10986" d="M2823.88,1193.846v-2.578l-4.634.51v2.187A7.986,7.986,0,0,0,2823.88,1193.846Z" transform="translate(-1691.453 -292.048)" fill="#f99893"/>
    <rect id="Rectangle_6006" data-name="Rectangle 6006" width="25.822" height="3.583" transform="translate(1072.123 922.573)" fill="#fff"/>
    <rect id="Rectangle_6007" data-name="Rectangle 6007" width="25.822" height="3.583" transform="translate(1069.002 918.99)" fill="#70c0fd"/>
    <path id="Path_10987" data-name="Path 10987" d="M2488.883,1503.762s-17.358-.549-21.3,3.184-1.3,31.828-.642,34.4c0,0,3.6,1.715,6.448.837s1.753-13.174,1.753-13.174-.328-11.747.11-13.394,6.464-2.854,6.464-2.854,9.313-6.477,8.765-6.477S2488.883,1503.762,2488.883,1503.762Z" transform="translate(-1371.935 -574.249)" fill="#09083c"/>
    <path id="Path_10988" data-name="Path 10988" d="M2574.9,1259.041l-2.776-7.673a.518.518,0,0,0-.716-.289l-5.253,2.588a.591.591,0,0,0-.28.765l4.544,10.434a.653.653,0,0,0,.825.352l4.608-1.708Z" transform="translate(-1462.576 -346.017)" fill="#07085b"/>
    <path id="Path_10989" data-name="Path 10989" d="M2608.563,1328.443a.391.391,0,0,1,.01-.06c.129-.5.271-.561.366-.56a.433.433,0,0,1,.006-.225c.235-.714.5-.067.5-.067a7.916,7.916,0,0,0,2.725,1.881l.7.153a16.232,16.232,0,0,1,.388-1.671s1.469,2.668,1.482,2.7a6.564,6.564,0,0,1-1.053,1.573c-.323.36-.96,1.23-1,1.3,0,0-1.526-.971-2.072-1.447a24.614,24.614,0,0,1-2.022-1.809.906.906,0,0,1-.227-.876A.813.813,0,0,1,2608.563,1328.443Z" transform="translate(-1500.941 -414.871)" fill="#ffc0bb"/>
    <g id="Group_9690" data-name="Group 9690" transform="translate(1107.428 912.953)">
      <path id="Path_10990" data-name="Path 10990" d="M2611.084,1339.042a1.709,1.709,0,0,0,.208.567,2.618,2.618,0,0,0,.358.491,2.991,2.991,0,0,0,.458.4c.081.06.17.11.254.164s.178.093.269.136c-.165-.116-.329-.228-.482-.354a4.5,4.5,0,0,1-.434-.4,3.616,3.616,0,0,1-.365-.466A2.452,2.452,0,0,1,2611.084,1339.042Z" transform="translate(-2610.88 -1338.462)" fill="#f99893"/>
      <path id="Path_10991" data-name="Path 10991" d="M2608.977,1348.641a1.7,1.7,0,0,0,.252.549,2.6,2.6,0,0,0,.4.461,3.035,3.035,0,0,0,.488.36c.086.054.178.1.266.144s.185.079.279.115c-.173-.1-.346-.2-.509-.315a4.535,4.535,0,0,1-.465-.368,3.589,3.589,0,0,1-.4-.435A2.431,2.431,0,0,1,2608.977,1348.641Z" transform="translate(-2608.977 -1347.131)" fill="#f99893"/>
      <path id="Path_10992" data-name="Path 10992" d="M2614.86,1333.049a1.7,1.7,0,0,0,.208.567,2.634,2.634,0,0,0,.358.491,3.037,3.037,0,0,0,.458.4c.081.06.17.109.254.164s.179.094.269.136c-.165-.116-.329-.228-.482-.354a4.492,4.492,0,0,1-.435-.4,3.617,3.617,0,0,1-.365-.466A2.428,2.428,0,0,1,2614.86,1333.049Z" transform="translate(-2614.29 -1333.049)" fill="#f99893"/>
    </g>
    <path id="Path_10993" data-name="Path 10993" d="M2676.522,1366.16l-5,7.551-6.642-1.312-11.273-8.427,1.977-2.931s10.563,6.344,11.461,6.522,3.349-5.56,3.349-5.56Z" transform="translate(-1541.86 -445.377)" fill="#ffc0bb"/>
    <path id="Path_10994" data-name="Path 10994" d="M2823.559,1228.113c-.546,2.995-1.979,9.93-4.052,13.133,0,0-5.011-.366-7.833-3.793,0,0,3.857-9.53,4.864-11.482.809-1.57,4.711-6.236,6.64-1.606A6.65,6.65,0,0,1,2823.559,1228.113Z" transform="translate(-1684.614 -320.136)" fill="#f4a640"/>
    <g id="Group_9691" data-name="Group 9691" transform="translate(1064.293 926.155)">
      <rect id="Rectangle_6008" data-name="Rectangle 6008" width="1.759" height="48.168" transform="translate(4.71 2.502)" fill="#183658"/>
      <rect id="Rectangle_6009" data-name="Rectangle 6009" width="1.759" height="48.168" transform="translate(21.31 2.502)" fill="#183658"/>
      <rect id="Rectangle_6010" data-name="Rectangle 6010" width="1.759" height="48.168" transform="translate(71.519 2.502)" fill="#183658"/>
      <rect id="Rectangle_6011" data-name="Rectangle 6011" width="1.759" height="48.168" transform="translate(88.118 2.502)" fill="#183658"/>
      <rect id="Rectangle_6012" data-name="Rectangle 6012" width="94.831" height="3.071" rx="1.535" fill="#fee4cb"/>
    </g>
    <g id="Group_9692" data-name="Group 9692" transform="translate(1122.361 884.015)">
      <path id="Path_10995" data-name="Path 10995" d="M2781.683,1044.215s1.6-5.74-1.507-8.064a8.42,8.42,0,0,0-8.892-1.046c-2.373,1.194-3.96,5.67-3.037,8.313l7.793-2.119Z" transform="translate(-2767.514 -1034.285)" fill="#07085b"/>
      <path id="Path_10996" data-name="Path 10996" d="M2765.431,1126.935a1.181,1.181,0,1,1-1.593-.931A1.324,1.324,0,0,1,2765.431,1126.935Z" transform="translate(-2763.163 -1117.063)" fill="#f99893"/>
      <path id="Path_10997" data-name="Path 10997" d="M2777.208,1073.193a6.022,6.022,0,0,1-.443-1.018,11.419,11.419,0,0,1-.562-2.847c-.014-.189-.04-.377-.069-.564a6.152,6.152,0,1,1,12.227-.832,1.325,1.325,0,0,1,1.2-.071,1.858,1.858,0,0,1-1.538,3.282,1.162,1.162,0,0,1-.272-.18,5.772,5.772,0,0,1-5.833,5.187,5.513,5.513,0,0,1-3.713-1.634,2.653,2.653,0,0,1-.2-.2A5.335,5.335,0,0,1,2777.208,1073.193Z" transform="translate(-2774.811 -1059.002)" fill="#ffc0bb"/>
      <path id="Path_10998" data-name="Path 10998" d="M2819.059,1124.379c-.041.351-.072.694-.118,1.029a2.3,2.3,0,0,1-.264.9l-.03.035a.434.434,0,0,1-.036.043.825.825,0,0,0-.1.125.7.7,0,0,0-.118.315.729.729,0,0,0,.221.591,1.185,1.185,0,0,0,1.038.293,1.465,1.465,0,0,1-.829-.474.467.467,0,0,1-.1-.363.386.386,0,0,1,.074-.162.5.5,0,0,1,.063-.073l.049-.055.055-.064a1.378,1.378,0,0,0,.212-.548,2.882,2.882,0,0,0,.042-.542A3.686,3.686,0,0,0,2819.059,1124.379Z" transform="translate(-2813.037 -1115.653)" fill="#f99893"/>
      <path id="Path_10999" data-name="Path 10999" d="M2845.937,1126.081a.537.537,0,1,0,.556-.519A.538.538,0,0,0,2845.937,1126.081Z" transform="translate(-2837.919 -1116.721)" fill="#333"/>
      <path id="Path_11000" data-name="Path 11000" d="M2798.258,1127.509a.537.537,0,1,0,.555-.519A.537.537,0,0,0,2798.258,1127.509Z" transform="translate(-2794.858 -1118.011)" fill="#333"/>
      <path id="Path_11001" data-name="Path 11001" d="M2840.036,1112.907a5.485,5.485,0,0,1,.8-.123,2.71,2.71,0,0,1,.745.045,2.51,2.51,0,0,1,.7.249c.12.049.222.131.342.193s.221.156.351.226a2.3,2.3,0,0,0-.208-.377,1.829,1.829,0,0,0-.3-.319,1.735,1.735,0,0,0-.8-.388,1.807,1.807,0,0,0-.889.044A1.647,1.647,0,0,0,2840.036,1112.907Z" transform="translate(-2832.59 -1104.814)" fill="#07085b"/>
      <path id="Path_11002" data-name="Path 11002" d="M2788.293,1114a1.65,1.65,0,0,0-.749-.427,1.806,1.806,0,0,0-.89-.017,1.733,1.733,0,0,0-.791.413,1.844,1.844,0,0,0-.29.328,2.275,2.275,0,0,0-.2.384c.128-.074.231-.163.344-.237s.218-.151.336-.2a2.515,2.515,0,0,1,.691-.271,2.716,2.716,0,0,1,.743-.068A5.543,5.543,0,0,1,2788.293,1114Z" transform="translate(-2783.226 -1105.831)" fill="#07085b"/>
      <path id="Path_11003" data-name="Path 11003" d="M2805.875,1055.063a.937.937,0,0,1,.636-.256l-.078-1.883-.532-1.156s-2.147-3.141-2.224-3.219-1.774-1.138-1.878-1.193-2.557.207-2.557.207-4.247-1.064-3.621,1.213,3.7,3.59,3.868,3.5a3.744,3.744,0,0,1-.476-1.957C2801.121,1052.82,2805.234,1054.769,2805.875,1055.063Z" transform="translate(-2792.418 -1046.053)" fill="#07085b"/>
      <path id="Path_11004" data-name="Path 11004" d="M2809.753,1165.915a1.6,1.6,0,0,0,3.077.2Z" transform="translate(-2805.24 -1153.166)" fill="#fff"/>
    </g>
    <rect id="Rectangle_6013" data-name="Rectangle 6013" width="27.326" height="3.071" rx="1.535" transform="translate(1131.797 926.155)" fill="#e0a689" opacity="0.5" style="mix-blend-mode: multiply;isolation: isolate"/>
    <rect id="Rectangle_6014" data-name="Rectangle 6014" width="12.216" height="2.389" transform="translate(1070.229 919.544)" fill="#97cef7" style="mix-blend-mode: multiply;isolation: isolate"/>
    <rect id="Rectangle_6015" data-name="Rectangle 6015" width="1.319" height="3.583" transform="translate(1091.169 922.573)" fill="#c9eafd"/>
    <rect id="Rectangle_6016" data-name="Rectangle 6016" width="284.428" height="2.615" rx="1.308" transform="translate(879 974.491)" fill="#70c0fd"/>
    <g id="Group_9696" data-name="Group 9696" transform="translate(20.108 -5.216)">
      <path id="Path_10933" data-name="Path 10933" d="M1022.258,988.386a.137.137,0,0,0,.23.071c.6-.595,2.484-2.455,2.67-2.337.221.14-1.426,1.843-1.318,2.06s1.672-1.484,1.883-1.3-1.266,1.691-1.2,1.8,1.632-1.179,1.822-1.143-1.318,1.616-1.281,1.771,1.44-.589,1.518-.475.148.176-2.532,2.757l-1.1.971-1.324.308-.935-1.343s.761-4.733.941-4.815S1021.922,986.744,1022.258,988.386Z" transform="translate(-95.112 -110.763)" fill="#ffb27d"/>
      <path id="Path_11007" data-name="Path 11007" d="M436.324,376.519s-.5,3.309-2.258,4.234c-2.114,1.112-3.621,2.6-3.17,6.231s-2.006,3.631-2.457,6.037-.4,6.8,5.64,5.489,19.856-.376,21.358-2.331.449-6.016-2.107-9.1.239-5.86-.51-8.732a10.809,10.809,0,0,0-5.355-6.466S438.965,370.645,436.324,376.519Z" transform="translate(454.042 487.981)" fill="#bc3f3f"/>
      <path id="Path_11008" data-name="Path 11008" d="M517.786,1200.353l2.036,8.577,3.05-.017.112-8.56Z" transform="translate(375.977 -234.621)" fill="#ffb27d"/>
      <path id="Path_11009" data-name="Path 11009" d="M718.4,1195.514l5.794,8.212,2.258-2.9-3.487-6.441Z" transform="translate(201.023 -229.416)" fill="#ffb27d"/>
      <path id="Path_11010" data-name="Path 11010" d="M531.515,473.4c.021.009-.373,9.549-2.008,9.566-.343,0-2.871-6.68-3.194-6.768-1.749-.477-1.995-4.756-1.971-4.761.741-.147.954-1.165.939-5.538l.335.066,5.629,1.115s-.128,1.772-.132,3.441C531.109,471.916,531.194,473.245,531.515,473.4Z" transform="translate(370.261 405.899)" fill="#ffb27d"/>
      <path id="Path_11011" data-name="Path 11011" d="M539.936,467.524s-.128,1.772-.132,3.441c-3.15-.089-4.815-2.962-5.5-4.555Z" transform="translate(361.569 405.45)" fill="#ef9e67"/>
      <path id="Path_11012" data-name="Path 11012" d="M493.764,380.077s-3.56-1.53-4.389-3.638c-.592-1.505-.471-8.6,5.914-8.939,0,0,3.641-1.166,6.2,1.02,1.181,1.01,1.487,2.078.467,7.538l-.185,1.812Z" transform="translate(400.953 491.979)" fill="#bc3f3f"/>
      <path id="Path_11013" data-name="Path 11013" d="M556.674,787.268s-1.5.258-2.725.352c-.273.021-.532.033-.758.033a13.349,13.349,0,0,1-2.373-.39l-.053-.012c-.314-.074-.554-.135-.643-.158l-.038-.01a63.743,63.743,0,0,1-11.646-21.622q-.146-.466-.309-.94c-2.291-6.679-7.039-15.061-9.541-22.649q-.6-1.812-1.076-3.422-.155-.517-.3-1.017a80.415,80.415,0,0,1-2.87-15.108l16.875,4.783S543.961,753.149,556.674,787.268Z" transform="translate(370.258 182.265)" fill="#f99746"/>
      <path id="Path_11014" data-name="Path 11014" d="M523.149,400.2s-7.282,1.593-8.2-2.957-2.483-7.409,2.127-8.618,5.868.343,6.546,1.787S525.02,399.668,523.149,400.2Z" transform="translate(379.341 473.664)" fill="#ffb27d"/>
      <path id="Path_11015" data-name="Path 11015" d="M508.141,380.705s-.924,5.743-3.835,7.151-4.408.854-4.408.854a25.224,25.224,0,0,0,.562-6.391S506.12,378.468,508.141,380.705Z" transform="translate(391.577 480.801)" fill="#bc3f3f"/>
      <path id="Path_11016" data-name="Path 11016" d="M561.155,381.762A5.106,5.106,0,0,1,563.9,383.6a7.114,7.114,0,0,1,1.512,3.357s.776-3.933-1.332-5.644C561.842,379.5,561.155,381.762,561.155,381.762Z" transform="translate(338.155 480.278)" fill="#bc3f3f"/>
      <path id="Path_11017" data-name="Path 11017" d="M529.935,1263.665a8.263,8.263,0,0,1-.388,3.516s-.5,2.275,1.741,2.317,2.79-.169,2.536-1.564-.736-3.807-.736-3.807Z" transform="translate(365.762 -289.835)" fill="#ffb27d"/>
      <path id="Path_11018" data-name="Path 11018" d="M528.274,1290.762a11.784,11.784,0,0,0-.15,3.375,6.665,6.665,0,0,0,2.274.268,8.407,8.407,0,0,0,2.367-.268,12.46,12.46,0,0,0-.366-3.433S530.81,1293.087,528.274,1290.762Z" transform="translate(367.034 -313.416)" fill="#1c468a"/>
      <path id="Path_11019" data-name="Path 11019" d="M765.815,1251.659a56.064,56.064,0,0,1-5.4-6.917l-3.071,1.573,6.866,6.448,1.606-.212Z" transform="translate(167.059 -273.332)" fill="#ffb27d"/>
      <path id="Path_11020" data-name="Path 11020" d="M763.047,1265.777s-4.439,0-5.2-.085-1.374-1.183-2.2-2.832a2.773,2.773,0,0,0-1.871-1.25v4.155h-1.173l-1.11-4.395c-.732-1.344-.108-2.46.406-3.521.721.224,2.415.643,5.311,3.743a4.115,4.115,0,0,0,3.21,1.5.264.264,0,0,0,.046.024C763,1264.256,763.047,1265.777,763.047,1265.777Z" transform="translate(172.45 -284.763)" fill="#1c468a"/>
      <path id="Path_11021" data-name="Path 11021" d="M573.515,876.865c-.273.021-.532.033-.758.033a13.355,13.355,0,0,1-2.373-.39l-.053-.012-.643-.158-.038-.01A63.744,63.744,0,0,1,558,854.706q-.146-.466-.309-.94c-2.291-6.679-7.039-15.061-9.541-22.649q-.6-1.812-1.076-3.422-.155-.517-.3-1.017l2.66-2.02s7.989,12.935,10.461,25.108C561.951,859.857,570.776,872.938,573.515,876.865Z" transform="translate(350.692 93.021)" fill="#ed7d2b"/>
      <path id="Path_11022" data-name="Path 11022" d="M482.921,827.492c.045,5.919-.254,19.529-1.025,25.164a4.012,4.012,0,0,1-2.544.654,4.372,4.372,0,0,1-2.687-.677c-1.935-9.8-3.31-17.9-4.312-24.888-.822-5.732-1.552-10.647-2.113-14.877-.5-3.749,2.648-13.9,2.648-13.9l11.809-1.152C484.5,808.189,482.9,824.052,482.921,827.492Z" transform="translate(417.489 116.43)" fill="#f99746"/>
      <path id="Path_11023" data-name="Path 11023" d="M479.351,861.164a4.616,4.616,0,0,1-2.687-.677c-1.935-9.8-3.31-17.9-4.312-24.888-.822-5.732-1.552-10.647-2.113-14.877-.5-3.749,2.648-13.9,2.648-13.9l4,2.56s-5.678,5.165-4.283,14.93S477.409,859.781,479.351,861.164Z" transform="translate(417.489 108.577)" fill="#ed7d2b"/>
      <path id="Path_11024" data-name="Path 11024" d="M591.412,538.222a13.846,13.846,0,0,1-2.391.513,14.663,14.663,0,0,0-3.4.684c-2.412,1.095-8.264-31.214-8.264-31.214s4.259.041,6.214,3.122,9.564,18.3,10.24,23.181A3.089,3.089,0,0,1,591.412,538.222Z" transform="translate(321.608 379.682)" fill="#1c468a"/>
      <path id="Path_11026" data-name="Path 11026" d="M488.257,547.108l-7.186-36.991a3.62,3.62,0,0,0-2.4-2.561l-2.421-.778L475.2,518.435l-5.325-11.865-2.221.341s-5.118,30.628-6.24,43.448C462.538,552.3,483.989,550.655,488.257,547.108Z" transform="translate(425.136 370.425)" fill="#1c468a"/>
      <path id="Path_11029" data-name="Path 11029" d="M452.955,655.3a130.669,130.669,0,0,0,16.967,3.837s2.736,1.183,1.452,1.507c-.329.083-16.934,3.7-19.4,1.354Z" transform="translate(433.368 240.721)" fill="#ffb27d"/>
      <path id="Path_11030" data-name="Path 11030" d="M442.276,506.574s-6.491.785-7.583,2.1c-3.453,4.144-6.584,21.837-3.877,25.923,3.233,4.88,8.214-2.779,9.775-7.29C441.4,524.963,442.721,510.828,442.276,506.574Z" transform="translate(452.717 370.422)" fill="#1c468a"/>
      <path id="Path_11031" data-name="Path 11031" d="M584.336,670.588s1.02-.1,1.213-.421c.387-.651,1-.643,1.508-.729s1.083-.644,1.184-.532-.376.728-.643.957a2.227,2.227,0,0,0,.909-.139c.362-.172,1.633-1.623,1.639-1,.014,1.5-.1,1.744-1.39,2.807-1.058.873-4.648,1.2-4.648,1.2Z" transform="translate(318.137 229.145)" fill="#ffb27d"/>
      <path id="Path_11032" data-name="Path 11032" d="M499.342,608.581l-.253,2.542a8.738,8.738,0,0,1-1.414-.445c-3.56-1.424-2.155-8.5-2.155-8.5A12.283,12.283,0,0,0,499.342,608.581Z" transform="translate(395.633 287.047)" fill="#233862"/>
      <path id="Path_11033" data-name="Path 11033" d="M565.631,459.885s.337.648.829.651a6.687,6.687,0,0,0,1.84-.237,6.144,6.144,0,0,0,.33-.8A9.545,9.545,0,0,0,565.631,459.885Z" transform="translate(334.251 411.477)" fill="#fff"/>
      <path id="Path_10937" data-name="Path 10937" d="M795.117,1021.006,808.281,1031l8.428-8.663s2.521,1.949,2.521,1.913-7.924,12.38-9.869,13.03-14.5-8.114-14.5-8.114Z" transform="translate(108.837 -142.976)" fill="#1c468a"/>
    </g>
  </g>
</svg>
