<svg xmlns="http://www.w3.org/2000/svg" xmlns:xlink="http://www.w3.org/1999/xlink" width="270.115" height="42.887" viewBox="0 0 270.115 42.887">
  <defs>
    <linearGradient id="linear-gradient" y1="0.499" x2="39.998" y2="0.499" gradientUnits="objectBoundingBox">
      <stop offset="0" stop-color="#f8800b"/>
      <stop offset="0.65" stop-color="#f15f10"/>
      <stop offset="1" stop-color="#ed4c14"/>
    </linearGradient>
    <linearGradient id="linear-gradient-2" x1="-0.74" y1="0.501" x2="24.701" y2="0.501" xlink:href="#linear-gradient"/>
    <linearGradient id="linear-gradient-3" x1="-2.836" y1="0.506" x2="35.511" y2="0.506" xlink:href="#linear-gradient"/>
    <linearGradient id="linear-gradient-4" x1="-3.455" y1="0.506" x2="30.1" y2="0.506" xlink:href="#linear-gradient"/>
    <linearGradient id="linear-gradient-5" x1="-2.39" y1="0.505" x2="15.418" y2="0.505" xlink:href="#linear-gradient"/>
    <linearGradient id="linear-gradient-6" x1="-4.832" y1="0.501" x2="21.108" y2="0.501" xlink:href="#linear-gradient"/>
    <linearGradient id="linear-gradient-7" x1="-6.738" y1="0.486" x2="22.942" y2="0.486" xlink:href="#linear-gradient"/>
    <linearGradient id="linear-gradient-8" x1="-9.675" y1="0.501" x2="27.152" y2="0.501" xlink:href="#linear-gradient"/>
    <linearGradient id="linear-gradient-9" x1="-10.283" y1="0.506" x2="23.268" y2="0.506" xlink:href="#linear-gradient"/>
    <linearGradient id="linear-gradient-10" x1="-12.541" y1="0.501" x2="24.282" y2="0.501" xlink:href="#linear-gradient"/>
    <linearGradient id="linear-gradient-11" x1="-14.896" y1="0.499" x2="25.108" y2="0.499" xlink:href="#linear-gradient"/>
    <linearGradient id="linear-gradient-12" x1="-13.397" y1="0.506" x2="20.158" y2="0.506" xlink:href="#linear-gradient"/>
    <linearGradient id="linear-gradient-13" x1="-32.618" y1="0.501" x2="42.657" y2="0.501" xlink:href="#linear-gradient"/>
    <linearGradient id="linear-gradient-14" x1="-12.485" y1="0.501" x2="15.077" y2="0.501" xlink:href="#linear-gradient"/>
    <linearGradient id="linear-gradient-15" x1="-14.478" y1="0.5" x2="14.781" y2="0.5" xlink:href="#linear-gradient"/>
    <linearGradient id="linear-gradient-16" x1="-15.955" y1="0.498" x2="13.261" y2="0.498" xlink:href="#linear-gradient"/>
    <linearGradient id="linear-gradient-17" x1="-17.346" y1="0.501" x2="11.687" y2="0.501" xlink:href="#linear-gradient"/>
    <linearGradient id="linear-gradient-18" x1="-23.473" y1="0.501" x2="13.35" y2="0.501" xlink:href="#linear-gradient"/>
    <linearGradient id="linear-gradient-19" x1="-17.306" y1="0.501" x2="8.67" y2="0.501" xlink:href="#linear-gradient"/>
    <linearGradient id="linear-gradient-20" x1="-26.051" y1="0.501" x2="10.777" y2="0.501" xlink:href="#linear-gradient"/>
    <linearGradient id="linear-gradient-21" x1="-27.847" y1="0.495" x2="9.796" y2="0.495" xlink:href="#linear-gradient"/>
    <linearGradient id="linear-gradient-22" x1="-19.538" y1="0.501" x2="5.905" y2="0.501" xlink:href="#linear-gradient"/>
    <linearGradient id="linear-gradient-23" x1="-28.675" y1="0.501" x2="6.606" y2="0.501" xlink:href="#linear-gradient"/>
    <linearGradient id="linear-gradient-24" x1="-17.487" y1="0.501" x2="3.23" y2="0.501" xlink:href="#linear-gradient"/>
    <linearGradient id="linear-gradient-25" x1="-33.039" y1="0.501" x2="3.783" y2="0.501" xlink:href="#linear-gradient"/>
    <linearGradient id="linear-gradient-26" x1="-25.624" y1="0.501" x2="1.939" y2="0.501" xlink:href="#linear-gradient"/>
    <linearGradient id="linear-gradient-27" x1="-32.551" y1="0.506" x2="1" y2="0.506" xlink:href="#linear-gradient"/>
    <linearGradient id="linear-gradient-28" x1="0" y1="0.5" x2="1" y2="0.5" xlink:href="#linear-gradient"/>
    <linearGradient id="linear-gradient-30" x1="0" y1="0.5" x2="1" y2="0.5" xlink:href="#linear-gradient"/>
    <linearGradient id="linear-gradient-32" x1="0" y1="0.5" x2="1" y2="0.5" xlink:href="#linear-gradient"/>
    <linearGradient id="linear-gradient-33" x1="0" y1="0.5" x2="1" y2="0.5" xlink:href="#linear-gradient"/>
  </defs>
  <g id="Group_9664" data-name="Group 9664" transform="translate(-7315 290.171)">
    <g id="Group_6" data-name="Group 6" transform="translate(7368.598 -261.728)">
      <g id="Group_5" data-name="Group 5" transform="translate(0)">
        <path id="Path_6" data-name="Path 6" d="M301.434,838.128a3.078,3.078,0,0,1-.959-.338l-.2-1.929.024-.011a3.048,3.048,0,0,0,1.039.924,2.717,2.717,0,0,0,1.245.281q1.425,0,1.424-1.033a1.01,1.01,0,0,0-.195-.626,1.536,1.536,0,0,0-.488-.419,8.09,8.09,0,0,0-.8-.367,7.508,7.508,0,0,1-1.1-.534,2.143,2.143,0,0,1-1.016-1.945,1.936,1.936,0,0,1,.327-1.085,2.276,2.276,0,0,1,.947-.8,3.385,3.385,0,0,1,1.481-.3,7.146,7.146,0,0,1,1.8.241l.149,1.882H305.1a1.938,1.938,0,0,0-.8-.735,2.437,2.437,0,0,0-1.016-.206q-1.32,0-1.32.884a.813.813,0,0,0,.178.528,1.46,1.46,0,0,0,.448.362q.269.143.763.35a7.984,7.984,0,0,1,1.147.562,2.3,2.3,0,0,1,1.091,2.089,2.217,2.217,0,0,1-.328,1.194,2.242,2.242,0,0,1-.981.838,3.676,3.676,0,0,1-1.584.31A6.293,6.293,0,0,1,301.434,838.128Z" transform="translate(-300.28 -829.87)" fill="url(#linear-gradient)"/>
        <path id="Path_7" data-name="Path 7" d="M310.054,837.745a3.6,3.6,0,0,1-1.418-1.481,4.549,4.549,0,0,1-.487-2.124,4.769,4.769,0,0,1,.51-2.255,3.61,3.61,0,0,1,1.475-1.5,4.618,4.618,0,0,1,2.273-.534,4.349,4.349,0,0,1,2.147.517,3.6,3.6,0,0,1,1.44,1.458,4.452,4.452,0,0,1,.511,2.158,4.626,4.626,0,0,1-.534,2.245,3.762,3.762,0,0,1-1.5,1.52,4.513,4.513,0,0,1-2.232.54A4.264,4.264,0,0,1,310.054,837.745Zm3.552-1.021a2.453,2.453,0,0,0,.873-1.05,3.737,3.737,0,0,0,.315-1.578,3.432,3.432,0,0,0-.665-2.25,2.477,2.477,0,0,0-3.134-.43,2.364,2.364,0,0,0-.844,1.045,3.893,3.893,0,0,0-.293,1.566,3.543,3.543,0,0,0,.642,2.25,2.437,2.437,0,0,0,3.1.447Z" transform="translate(-301.962 -829.848)" fill="url(#linear-gradient-2)"/>
        <path id="Path_8" data-name="Path 8" d="M325.824,832.169l-.023.011a2.2,2.2,0,0,0-2.044-.918h-1.286V833.4h1.01a10.469,10.469,0,0,0,1.722-.092l-.368,2.066h-.023a1.086,1.086,0,0,0-.465-.6,1.406,1.406,0,0,0-.786-.23h-1.091v1.825a2.8,2.8,0,0,0,.184,1.1,1.337,1.337,0,0,0,.436.6v.023H320.28v-.023a1.346,1.346,0,0,0,.436-.609,2.832,2.832,0,0,0,.183-1.091v-4.534a3.049,3.049,0,0,0-.166-1.154,1.114,1.114,0,0,0-.442-.545v-.024h3.845a8.884,8.884,0,0,0,1.481-.092Z" transform="translate(-304.555 -829.885)" fill="url(#linear-gradient-3)"/>
        <path id="Path_9" data-name="Path 9" d="M334.455,832.124l-.022.012a1.709,1.709,0,0,0-1.492-.85h-.861v4.993a2.951,2.951,0,0,0,.2,1.165,1.223,1.223,0,0,0,.5.626v.023h-2.973v-.023a1.342,1.342,0,0,0,.488-.638,2.821,2.821,0,0,0,.212-1.153v-4.993h-.873a1.707,1.707,0,0,0-1.492.85l-.024-.012.2-2.1a12.161,12.161,0,0,0,1.573.092h2.8a12.143,12.143,0,0,0,1.573-.092Z" transform="translate(-306.23 -829.885)" fill="url(#linear-gradient-4)"/>
        <path id="Path_10" data-name="Path 10" d="M338.42,838.076a1.491,1.491,0,0,0,.367-1.045,2.743,2.743,0,0,0-.1-.723l-1.331-4.843a2.006,2.006,0,0,0-.781-1.319v-.024h2.778v.024a1.158,1.158,0,0,0-.355.94,1.87,1.87,0,0,0,.057.482l.654,2.56a8.646,8.646,0,0,1,.189.952q.063.46.086,1.125h.046a10.8,10.8,0,0,1,.8-2.192l1.228-2.514a8.928,8.928,0,0,0,.563-1.447h.069q.114.38.23.694a6.529,6.529,0,0,0,.333.741l1.113,2.18a11.228,11.228,0,0,1,.579,1.331,10.242,10.242,0,0,1,.327,1.205h.046a14.861,14.861,0,0,1,.356-2.342l.562-2.3a1.971,1.971,0,0,0,.069-.5,1.171,1.171,0,0,0-.356-.918l.012-.024h2.548v.024a1.238,1.238,0,0,0-.482.533,3.507,3.507,0,0,0-.3.8l-1.159,4.832a3.167,3.167,0,0,0-.092.689,1.774,1.774,0,0,0,.356,1.08v.023h-2.686v-.023a1.106,1.106,0,0,0,.137-.574,1.93,1.93,0,0,0-.206-.85l-.838-1.79a7.2,7.2,0,0,1-.333-.889,6.157,6.157,0,0,1-.207-.867h-.046a8.56,8.56,0,0,1-.506,1.493l-.964,2.054a2.114,2.114,0,0,0-.207.862.973.973,0,0,0,.149.562v.023H338.42Z" transform="translate(-308.037 -829.892)" fill="url(#linear-gradient-5)"/>
        <path id="Path_11" data-name="Path 11" d="M358.254,837.366a3.1,3.1,0,0,0,.586.729v.023h-2.595v-.023a.628.628,0,0,0,.184-.528,2.714,2.714,0,0,0-.184-.884l-.1-.275h-2.962l-.1.275a2.408,2.408,0,0,0-.183.873.7.7,0,0,0,.16.539v.023h-2.411v-.023a3.326,3.326,0,0,0,.579-.735,5.615,5.615,0,0,0,.534-1.125l1.642-4.728a1.817,1.817,0,0,0,.1-.563,1.149,1.149,0,0,0-.092-.471.811.811,0,0,0-.218-.309v-.024h3.042v.024a.942.942,0,0,0-.219.315,1.1,1.1,0,0,0-.091.465,1.794,1.794,0,0,0,.1.563l1.687,4.728A5.531,5.531,0,0,0,358.254,837.366Zm-3.846-4.592q-.149.522-.425,1.292l-.425,1.216h2.2l-.425-1.216q-.287-.827-.436-1.32a7.072,7.072,0,0,1-.23-1.079h-.046A6.917,6.917,0,0,1,354.409,832.774Z" transform="translate(-311.044 -829.91)" fill="url(#linear-gradient-6)"/>
        <path id="Path_12" data-name="Path 12" d="M368.829,837.911v.023l-2.353.425a6.574,6.574,0,0,0-.586-1.274l-1.779-3.042h.55a1.706,1.706,0,0,0,1.148-.338,1.364,1.364,0,0,0,.39-1.084,1.289,1.289,0,0,0-.4-1,1.587,1.587,0,0,0-1.137-.355l-.8.012v5.164a2.831,2.831,0,0,0,.172,1.05,1.376,1.376,0,0,0,.4.6v.023h-2.766v-.023a1.264,1.264,0,0,0,.436-.6,2.859,2.859,0,0,0,.183-1.1v-4.58a2.7,2.7,0,0,0-.183-1.061,1.256,1.256,0,0,0-.436-.591v-.024h3.26a3.211,3.211,0,0,1,2.135.649,2.2,2.2,0,0,1,.77,1.773,2.453,2.453,0,0,1-.408,1.464,2.209,2.209,0,0,1-1.153.809l1.068,1.733A2.95,2.95,0,0,0,368.829,837.911Z" transform="translate(-313.4 -829.91)" fill="url(#linear-gradient-7)"/>
        <path id="Path_13" data-name="Path 13" d="M377.089,835.9l-.321,2.284a5.274,5.274,0,0,0-.614-.076q-.294-.016-.786-.017h-4.052v-.023a1.352,1.352,0,0,0,.436-.609,2.817,2.817,0,0,0,.184-1.091v-4.534a2.81,2.81,0,0,0-.184-1.1,1.348,1.348,0,0,0-.436-.6v-.024h4.12a5.912,5.912,0,0,0,1.217-.092l.195,2.055-.023.012a1.335,1.335,0,0,0-.666-.637,2.7,2.7,0,0,0-1.136-.212h-1.515v2.02h.873q.722,0,1.067-.017c.23-.012.471-.032.723-.063l-.333,1.928h-.024a.98.98,0,0,0-.447-.55,1.639,1.639,0,0,0-.8-.172h-1.056v2.582h1.251a3.162,3.162,0,0,0,1.348-.275,2.374,2.374,0,0,0,.959-.8Z" transform="translate(-315.463 -829.885)" fill="url(#linear-gradient-8)"/>
        <path id="Path_14" data-name="Path 14" d="M389.491,832.124l-.023.012a1.709,1.709,0,0,0-1.492-.85h-.861v4.993a2.951,2.951,0,0,0,.2,1.165,1.223,1.223,0,0,0,.5.626v.023h-2.973v-.023a1.342,1.342,0,0,0,.488-.638,2.821,2.821,0,0,0,.212-1.153v-4.993h-.873a1.707,1.707,0,0,0-1.492.85l-.024-.012.2-2.1a12.161,12.161,0,0,0,1.573.092h2.8a12.144,12.144,0,0,0,1.573-.092Z" transform="translate(-317.993 -829.885)" fill="url(#linear-gradient-9)"/>
        <path id="Path_15" data-name="Path 15" d="M398.14,835.9l-.322,2.284a5.274,5.274,0,0,0-.614-.076c-.2-.011-.458-.017-.786-.017h-4.052v-.023a1.347,1.347,0,0,0,.436-.609,2.832,2.832,0,0,0,.183-1.091v-4.534a2.825,2.825,0,0,0-.183-1.1,1.343,1.343,0,0,0-.436-.6v-.024h4.121a5.909,5.909,0,0,0,1.216-.092l.2,2.055-.023.012a1.334,1.334,0,0,0-.665-.637,2.707,2.707,0,0,0-1.137-.212h-1.515v2.02h.873q.723,0,1.067-.017c.23-.012.471-.032.723-.063l-.333,1.928h-.023a.984.984,0,0,0-.448-.55,1.637,1.637,0,0,0-.8-.172h-1.056v2.582h1.251a3.168,3.168,0,0,0,1.349-.275,2.371,2.371,0,0,0,.958-.8Z" transform="translate(-319.962 -829.885)" fill="url(#linear-gradient-10)"/>
        <path id="Path_16" data-name="Path 16" d="M402.117,838.128a3.08,3.08,0,0,1-.958-.338l-.2-1.929.023-.011a3.05,3.05,0,0,0,1.039.924,2.715,2.715,0,0,0,1.245.281q1.424,0,1.424-1.033a1,1,0,0,0-.2-.626,1.524,1.524,0,0,0-.487-.419,8.03,8.03,0,0,0-.8-.367,7.508,7.508,0,0,1-1.1-.534,2.147,2.147,0,0,1-1.016-1.945,1.943,1.943,0,0,1,.327-1.085,2.286,2.286,0,0,1,.947-.8,3.389,3.389,0,0,1,1.481-.3,7.15,7.15,0,0,1,1.8.241l.149,1.882h-.024a1.937,1.937,0,0,0-.8-.735,2.437,2.437,0,0,0-1.016-.206q-1.32,0-1.32.884a.808.808,0,0,0,.178.528,1.465,1.465,0,0,0,.447.362q.27.143.764.35a7.985,7.985,0,0,1,1.147.562,2.3,2.3,0,0,1,1.091,2.089,2.217,2.217,0,0,1-.327,1.194,2.251,2.251,0,0,1-.981.838,3.676,3.676,0,0,1-1.584.31A6.3,6.3,0,0,1,402.117,838.128Z" transform="translate(-321.799 -829.87)" fill="url(#linear-gradient-11)"/>
        <path id="Path_17" data-name="Path 17" d="M414.57,832.124l-.023.012a1.707,1.707,0,0,0-1.492-.85h-.86v4.993a2.951,2.951,0,0,0,.2,1.165,1.223,1.223,0,0,0,.5.626v.023h-2.973v-.023a1.347,1.347,0,0,0,.488-.638,2.835,2.835,0,0,0,.212-1.153v-4.993h-.873a1.707,1.707,0,0,0-1.492.85l-.023-.012.195-2.1a12.153,12.153,0,0,0,1.573.092h2.8a12.152,12.152,0,0,0,1.573-.092Z" transform="translate(-323.353 -829.885)" fill="url(#linear-gradient-12)"/>
        <path id="Path_18" data-name="Path 18" d="M417.445,838.095a1.347,1.347,0,0,0,.436-.609,2.817,2.817,0,0,0,.184-1.091v-4.534a2.81,2.81,0,0,0-.184-1.1,1.343,1.343,0,0,0-.436-.6v-.024h2.824v.024a1.328,1.328,0,0,0-.436.608,2.817,2.817,0,0,0-.184,1.091V836.4a2.8,2.8,0,0,0,.184,1.1,1.337,1.337,0,0,0,.436.6v.023h-2.824Z" transform="translate(-325.322 -829.91)" fill="url(#linear-gradient-13)"/>
        <path id="Path_19" data-name="Path 19" d="M422.759,838.095a1.347,1.347,0,0,0,.436-.609,2.818,2.818,0,0,0,.183-1.091V831.8a2.938,2.938,0,0,0-.16-.97,1.292,1.292,0,0,0-.459-.671v-.024h2.606a1.742,1.742,0,0,0,.115.43,4.825,4.825,0,0,0,.356.672l1.653,2.777a16.531,16.531,0,0,1,1.056,2.273h.046a13.8,13.8,0,0,1-.183-2.364v-2.066a3.13,3.13,0,0,0-.167-1.1,1.167,1.167,0,0,0-.419-.6v-.024h2.651v.024a1.252,1.252,0,0,0-.436.6,2.864,2.864,0,0,0-.184,1.1V836.4a2.857,2.857,0,0,0,.184,1.1,1.259,1.259,0,0,0,.436.6v.023h-2.422a8.089,8.089,0,0,0-.574-1.091l-1.618-2.628a11.389,11.389,0,0,1-.666-1.234,13.419,13.419,0,0,1-.528-1.384h-.046q.126.747.167,1.343t.04,1.32V836.4a3.125,3.125,0,0,0,.167,1.1,1.177,1.177,0,0,0,.418.6v.023h-2.651Z" transform="translate(-326.458 -829.91)" fill="url(#linear-gradient-14)"/>
        <path id="Path_20" data-name="Path 20" d="M441.339,833.8v.023a.824.824,0,0,0-.287.528,5.606,5.606,0,0,0-.092,1.171v1.894a5.246,5.246,0,0,1-1.366.6,5.355,5.355,0,0,1-1.481.23,4.211,4.211,0,0,1-2.1-.517,3.655,3.655,0,0,1-1.429-1.435,4.248,4.248,0,0,1-.511-2.1,4.611,4.611,0,0,1,.534-2.272,3.6,3.6,0,0,1,1.5-1.475,4.7,4.7,0,0,1,2.238-.512,7.246,7.246,0,0,1,2.18.311l.172,1.871-.023.011a3.018,3.018,0,0,0-2.364-.988,2.319,2.319,0,0,0-1.865.786,3.207,3.207,0,0,0-.671,2.153,3.285,3.285,0,0,0,.654,2.158,2.21,2.21,0,0,0,1.8.793,2.954,2.954,0,0,0,1.263-.253v-1.87a2.345,2.345,0,0,0-1.711.6l-.023-.01.184-1.757a9.223,9.223,0,0,0,1.4.069Z" transform="translate(-328.876 -829.867)" fill="url(#linear-gradient-15)"/>
        <path id="Path_21" data-name="Path 21" d="M449.422,837.99a2.443,2.443,0,0,1-1.1-.849,2.207,2.207,0,0,1-.384-1.3,2.3,2.3,0,0,1,.339-1.183,2.019,2.019,0,0,1,.866-.826v-.023a1.786,1.786,0,0,1-.682-.654,1.74,1.74,0,0,1-.246-.907,2.072,2.072,0,0,1,.372-1.227,2.4,2.4,0,0,1,1.039-.815,3.826,3.826,0,0,1,1.526-.287,6.681,6.681,0,0,1,2.078.344l.171,1.71-.022.012a2.1,2.1,0,0,0-.821-.615,2.883,2.883,0,0,0-1.223-.258,1.852,1.852,0,0,0-1.085.287.868.868,0,0,0-.407.735.979.979,0,0,0,.407.837,1.82,1.82,0,0,0,1.1.3l2.4-.011a2.681,2.681,0,0,0,.837-.127,1.487,1.487,0,0,0,.609-.344l.023.012-.241,1.606h-.768V835.8a2.328,2.328,0,0,1-.373,1.32,2.376,2.376,0,0,1-1.079.867,4.168,4.168,0,0,1-1.658.3A4.314,4.314,0,0,1,449.422,837.99Zm2.9-1.245a1.251,1.251,0,0,0,.43-1.016v-1.319H451.4a2.232,2.232,0,0,0-1.326.35,1.127,1.127,0,0,0-.487.969,1.264,1.264,0,0,0,.425,1.01,1.691,1.691,0,0,0,1.147.367A1.753,1.753,0,0,0,452.32,836.744Z" transform="translate(-331.84 -829.864)" fill="url(#linear-gradient-16)"/>
        <path id="Path_22" data-name="Path 22" d="M461.824,838.095a1.352,1.352,0,0,0,.436-.609,2.832,2.832,0,0,0,.183-1.091v-4.534a2.851,2.851,0,0,0-.189-1.068,1.339,1.339,0,0,0-.431-.631v-.024h3.328a4.44,4.44,0,0,1,2.106.476,3.344,3.344,0,0,1,1.394,1.371,4.359,4.359,0,0,1,.494,2.136,3.985,3.985,0,0,1-1.044,2.956,4.273,4.273,0,0,1-3.133,1.039h-3.145Zm3.259-1.113a2.153,2.153,0,0,0,1.757-.735,4.1,4.1,0,0,0,.011-4.276,2.278,2.278,0,0,0-1.825-.693h-1.01v5.7Z" transform="translate(-334.807 -829.91)" fill="url(#linear-gradient-17)"/>
        <path id="Path_23" data-name="Path 23" d="M478.415,835.9l-.321,2.284a5.294,5.294,0,0,0-.614-.076c-.2-.011-.458-.017-.786-.017h-4.052v-.023a1.346,1.346,0,0,0,.436-.609,2.832,2.832,0,0,0,.183-1.091v-4.534a2.825,2.825,0,0,0-.183-1.1,1.343,1.343,0,0,0-.436-.6v-.024h4.121a5.9,5.9,0,0,0,1.216-.092l.2,2.055-.023.012a1.332,1.332,0,0,0-.666-.637,2.7,2.7,0,0,0-1.136-.212h-1.515v2.02h.873q.723,0,1.068-.017c.229-.012.47-.032.723-.063l-.333,1.928h-.023a.986.986,0,0,0-.447-.55,1.64,1.64,0,0,0-.8-.172h-1.056v2.582h1.252a3.164,3.164,0,0,0,1.348-.275,2.371,2.371,0,0,0,.958-.8Z" transform="translate(-337.119 -829.885)" fill="url(#linear-gradient-18)"/>
        <path id="Path_24" data-name="Path 24" d="M483.1,838.095a.8.8,0,0,0,.184-.322,1.5,1.5,0,0,0,.068-.47,2.483,2.483,0,0,0-.149-.793l-1.733-4.809a4.653,4.653,0,0,0-.443-.879,2.4,2.4,0,0,0-.6-.659v-.024h2.686v.024a.94.94,0,0,0-.2.631,1.423,1.423,0,0,0,.081.471l1.01,2.915a13.055,13.055,0,0,1,.6,2.353h.046c.068-.4.16-.817.274-1.257s.222-.81.322-1.108l.965-2.881a1.867,1.867,0,0,0,.1-.586.827.827,0,0,0-.16-.539v-.024h2.456v.024a2.547,2.547,0,0,0-.965,1.434l-1.721,4.913a2.491,2.491,0,0,0-.149.8,1.064,1.064,0,0,0,.252.781v.023H483.1Z" transform="translate(-338.782 -829.91)" fill="url(#linear-gradient-19)"/>
        <path id="Path_25" data-name="Path 25" d="M497.32,835.9,497,838.185a5.275,5.275,0,0,0-.614-.076c-.2-.011-.458-.017-.786-.017h-4.052v-.023a1.351,1.351,0,0,0,.436-.609,2.831,2.831,0,0,0,.184-1.091v-4.534a2.824,2.824,0,0,0-.184-1.1,1.347,1.347,0,0,0-.436-.6v-.024h4.121a5.909,5.909,0,0,0,1.216-.092l.2,2.055-.024.012a1.331,1.331,0,0,0-.665-.637,2.7,2.7,0,0,0-1.137-.212h-1.514v2.02h.872q.723,0,1.068-.017c.229-.012.47-.032.723-.063l-.333,1.928h-.023a.983.983,0,0,0-.447-.55,1.64,1.64,0,0,0-.8-.172h-1.055v2.582h1.251a3.164,3.164,0,0,0,1.348-.275,2.371,2.371,0,0,0,.958-.8Z" transform="translate(-341.16 -829.885)" fill="url(#linear-gradient-20)"/>
        <path id="Path_26" data-name="Path 26" d="M505.074,838.134c-.18-.011-.412-.017-.694-.017H500.3v-.023a1.346,1.346,0,0,0,.436-.609,2.832,2.832,0,0,0,.183-1.091v-4.58a2.718,2.718,0,0,0-.183-1.061,1.256,1.256,0,0,0-.436-.591v-.024h2.812v.024a1.344,1.344,0,0,0-.436.608,2.832,2.832,0,0,0-.184,1.091v5.108h1.137a3.311,3.311,0,0,0,1.343-.258,2.279,2.279,0,0,0,.953-.775l.023.012-.3,2.261A4.944,4.944,0,0,0,505.074,838.134Z" transform="translate(-343.032 -829.91)" fill="url(#linear-gradient-21)"/>
        <path id="Path_27" data-name="Path 27" d="M509.816,837.745a3.6,3.6,0,0,1-1.418-1.481,4.539,4.539,0,0,1-.487-2.124,4.77,4.77,0,0,1,.51-2.255,3.606,3.606,0,0,1,1.475-1.5,4.618,4.618,0,0,1,2.273-.534,4.344,4.344,0,0,1,2.146.517,3.592,3.592,0,0,1,1.44,1.458,4.453,4.453,0,0,1,.511,2.158,4.617,4.617,0,0,1-.534,2.245,3.756,3.756,0,0,1-1.5,1.52,4.512,4.512,0,0,1-2.233.54A4.263,4.263,0,0,1,509.816,837.745Zm3.552-1.021a2.453,2.453,0,0,0,.873-1.05,3.736,3.736,0,0,0,.315-1.578,3.428,3.428,0,0,0-.666-2.25,2.476,2.476,0,0,0-3.133-.43,2.364,2.364,0,0,0-.844,1.045,3.893,3.893,0,0,0-.292,1.566,3.543,3.543,0,0,0,.642,2.25,2.436,2.436,0,0,0,3.1.447Z" transform="translate(-344.658 -829.848)" fill="url(#linear-gradient-22)"/>
        <path id="Path_28" data-name="Path 28" d="M525.31,830.818a2.437,2.437,0,0,1,.758,1.916,2.676,2.676,0,0,1-.747,2.066,3.051,3.051,0,0,1-2.146.689h-.941v.952a2.721,2.721,0,0,0,.183,1.062,1.264,1.264,0,0,0,.436.591v.023h-2.812v-.023a1.345,1.345,0,0,0,.436-.609,2.816,2.816,0,0,0,.184-1.091v-4.58a2.7,2.7,0,0,0-.184-1.061,1.255,1.255,0,0,0-.436-.591v-.024h3.133A3.091,3.091,0,0,1,525.31,830.818Zm-.873,2a1.594,1.594,0,0,0-.373-1.166,1.576,1.576,0,0,0-1.154-.372h-.677v3.064l.677.012A1.348,1.348,0,0,0,524.437,832.815Z" transform="translate(-347.25 -829.91)" fill="url(#linear-gradient-23)"/>
        <path id="Path_29" data-name="Path 29" d="M528.508,838.095a2.749,2.749,0,0,0,.471-.718,2.881,2.881,0,0,0,.218-.947l.3-4.454.012-.218a2.874,2.874,0,0,0-.155-.952,1.151,1.151,0,0,0-.476-.642l.012-.024h2.628a.405.405,0,0,0-.081.275,1.629,1.629,0,0,0,.264.769l1.136,1.952a5.438,5.438,0,0,1,.712,1.894h.046a4.392,4.392,0,0,1,.3-.866q.189-.4.545-1.028l1.125-1.985a1.671,1.671,0,0,0,.252-.747.389.389,0,0,0-.08-.263h2.651l.011.024a1.206,1.206,0,0,0-.528.74,2.9,2.9,0,0,0-.138,1.072l.356,4.454a3.208,3.208,0,0,0,.212.912,2.121,2.121,0,0,0,.465.753l-.01.023H536.13l-.012-.023a1.075,1.075,0,0,0,.276-.459,2.187,2.187,0,0,0,.115-.735,2.035,2.035,0,0,0-.011-.23l-.185-2.375c-.015-.261-.022-.467-.022-.62a10.75,10.75,0,0,1,.091-1.354h-.046a7.857,7.857,0,0,1-.378.992q-.206.442-.506.958l-1.274,2.158a3.494,3.494,0,0,0-.539,1.389h-.091a3.59,3.59,0,0,0-.575-1.378l-1.365-2.18a6.518,6.518,0,0,1-.477-.907,8.475,8.475,0,0,1-.35-1.032h-.046q.081.8.081,1.434c0,.252,0,.433-.012.54l-.126,2.375a2.753,2.753,0,0,0,.086.885,1.1,1.1,0,0,0,.292.539l-.012.023H528.52Z" transform="translate(-349.06 -829.91)" fill="url(#linear-gradient-24)"/>
        <path id="Path_30" data-name="Path 30" d="M548.662,835.9l-.321,2.284a5.3,5.3,0,0,0-.614-.076c-.195-.011-.458-.017-.786-.017h-4.052v-.023a1.346,1.346,0,0,0,.436-.609,2.831,2.831,0,0,0,.183-1.091v-4.534a2.824,2.824,0,0,0-.183-1.1,1.342,1.342,0,0,0-.436-.6v-.024h4.122a5.9,5.9,0,0,0,1.216-.092l.195,2.055-.023.012a1.332,1.332,0,0,0-.666-.637,2.7,2.7,0,0,0-1.136-.212H545.08v2.02h.873q.723,0,1.068-.017c.229-.012.47-.032.723-.063l-.333,1.928h-.023a.986.986,0,0,0-.447-.55,1.64,1.64,0,0,0-.8-.172H545.08v2.582h1.252a3.164,3.164,0,0,0,1.348-.275,2.372,2.372,0,0,0,.958-.8Z" transform="translate(-352.133 -829.885)" fill="url(#linear-gradient-25)"/>
        <path id="Path_31" data-name="Path 31" d="M551.647,838.095a1.346,1.346,0,0,0,.436-.609,2.833,2.833,0,0,0,.183-1.091V831.8a2.958,2.958,0,0,0-.16-.97,1.3,1.3,0,0,0-.459-.671v-.024h2.606a1.742,1.742,0,0,0,.115.43,4.8,4.8,0,0,0,.355.672l1.654,2.777a16.626,16.626,0,0,1,1.056,2.273h.046a13.721,13.721,0,0,1-.183-2.364v-2.066a3.146,3.146,0,0,0-.167-1.1,1.176,1.176,0,0,0-.419-.6v-.024h2.651v.024a1.258,1.258,0,0,0-.436.6,2.881,2.881,0,0,0-.183,1.1V836.4a2.875,2.875,0,0,0,.183,1.1,1.264,1.264,0,0,0,.436.6v.023h-2.422a8,8,0,0,0-.574-1.091l-1.618-2.628a11.258,11.258,0,0,1-.666-1.234,13.767,13.767,0,0,1-.528-1.384h-.046q.126.747.166,1.343t.041,1.32V836.4a3.126,3.126,0,0,0,.166,1.1,1.178,1.178,0,0,0,.419.6v.023h-2.651Z" transform="translate(-354.005 -829.91)" fill="url(#linear-gradient-26)"/>
        <path id="Path_32" data-name="Path 32" d="M568.947,832.124l-.024.012a1.707,1.707,0,0,0-1.492-.85h-.861v4.993a2.936,2.936,0,0,0,.2,1.165,1.223,1.223,0,0,0,.5.626v.023H564.3v-.023a1.342,1.342,0,0,0,.488-.638,2.834,2.834,0,0,0,.212-1.153v-4.993h-.872a1.709,1.709,0,0,0-1.492.85l-.023-.012.2-2.1a12.161,12.161,0,0,0,1.573.092h2.8a12.161,12.161,0,0,0,1.573-.092Z" transform="translate(-356.348 -829.885)" fill="url(#linear-gradient-27)"/>
      </g>
    </g>
    <g id="Group_8" data-name="Group 8" transform="translate(7368.408 -290.166)">
      <g id="Group_7" data-name="Group 7" transform="translate(0 0)">
        <path id="Path_33" data-name="Path 33" d="M302.884,813.885a7.641,7.641,0,0,1-2.364-.836l-.481-4.755.057-.029a7.515,7.515,0,0,0,2.562,2.279,6.717,6.717,0,0,0,3.071.693q3.51,0,3.51-2.548a2.489,2.489,0,0,0-.48-1.542,3.761,3.761,0,0,0-1.2-1.034,19.923,19.923,0,0,0-1.967-.905,18.592,18.592,0,0,1-2.7-1.316,5.291,5.291,0,0,1-2.505-4.8,4.785,4.785,0,0,1,.807-2.674,5.621,5.621,0,0,1,2.335-1.967,8.346,8.346,0,0,1,3.651-.737,17.681,17.681,0,0,1,4.444.594l.368,4.643h-.057a4.751,4.751,0,0,0-1.967-1.812,5.961,5.961,0,0,0-2.505-.51q-3.255,0-3.255,2.18a1.991,1.991,0,0,0,.439,1.3,3.558,3.558,0,0,0,1.1.892q.664.354,1.882.863a19.764,19.764,0,0,1,2.831,1.386,5.683,5.683,0,0,1,2.69,5.152,5.306,5.306,0,0,1-3.228,5.01,9.057,9.057,0,0,1-3.906.765A15.638,15.638,0,0,1,302.884,813.885Z" transform="translate(-300.039 -793.688)" fill="#2e76fa"/>
        <path id="Path_34" data-name="Path 34" d="M333.591,799.076l-.057.028a4.222,4.222,0,0,0-3.679-2.095h-2.124v12.313a7.268,7.268,0,0,0,.5,2.874,3.022,3.022,0,0,0,1.232,1.543v.057h-7.332v-.057a3.3,3.3,0,0,0,1.2-1.572,6.971,6.971,0,0,0,.524-2.845V797.01H321.7a4.222,4.222,0,0,0-3.679,2.095l-.057-.028.482-5.18a29.878,29.878,0,0,0,3.877.226h6.907a29.9,29.9,0,0,0,3.878-.226Z" transform="translate(-303.871 -793.726)" fill="#2e76fa"/>
        <path id="Path_35" data-name="Path 35" d="M355.2,812a7.655,7.655,0,0,0,1.444,1.8v.057h-6.4V813.8a1.552,1.552,0,0,0,.453-1.3,6.721,6.721,0,0,0-.453-2.179l-.255-.679h-7.3l-.255.679a5.93,5.93,0,0,0-.453,2.15,1.723,1.723,0,0,0,.4,1.331v.057h-5.944V813.8a8.236,8.236,0,0,0,1.429-1.812,14,14,0,0,0,1.316-2.775l4.048-11.662a4.42,4.42,0,0,0,.255-1.386,2.849,2.849,0,0,0-.226-1.161,2.03,2.03,0,0,0-.538-.763v-.057h7.5v.057a2.361,2.361,0,0,0-.537.778,2.72,2.72,0,0,0-.226,1.146,4.421,4.421,0,0,0,.255,1.386l4.161,11.662A13.776,13.776,0,0,0,355.2,812Zm-9.482-11.321q-.369,1.288-1.047,3.184l-1.047,3h5.435l-1.047-3q-.708-2.039-1.076-3.256a17.32,17.32,0,0,1-.566-2.661h-.113A17.368,17.368,0,0,1,345.72,800.681Z" transform="translate(-307.818 -793.788)" fill="#2e76fa"/>
        <path id="Path_36" data-name="Path 36" d="M363.615,813.8a3.329,3.329,0,0,0,1.076-1.5,6.952,6.952,0,0,0,.453-2.689v-11.18a6.986,6.986,0,0,0-.468-2.632,3.3,3.3,0,0,0-1.061-1.557v-.057h8.209a10.969,10.969,0,0,1,5.194,1.175,8.258,8.258,0,0,1,3.439,3.383,10.758,10.758,0,0,1,1.217,5.265q0,4.728-2.576,7.289t-7.727,2.562h-7.756Zm8.039-2.746a5.3,5.3,0,0,0,4.331-1.811,8.021,8.021,0,0,0,1.5-5.237q0-3.594-1.473-5.307a5.613,5.613,0,0,0-4.5-1.712h-2.491v14.067Z" transform="translate(-313.627 -793.788)" fill="#2e76fa"/>
        <path id="Path_37" data-name="Path 37" d="M415.215,812a7.634,7.634,0,0,0,1.444,1.8v.057h-6.4V813.8a1.549,1.549,0,0,0,.453-1.3,6.7,6.7,0,0,0-.453-2.179l-.254-.679h-7.3l-.255.679a5.93,5.93,0,0,0-.453,2.15,1.726,1.726,0,0,0,.4,1.331v.057h-5.943V813.8a8.214,8.214,0,0,0,1.429-1.812,14,14,0,0,0,1.317-2.775l4.048-11.662a4.442,4.442,0,0,0,.255-1.386A2.849,2.849,0,0,0,403.27,795a2.039,2.039,0,0,0-.538-.763v-.057h7.5v.057a2.35,2.35,0,0,0-.537.778,2.719,2.719,0,0,0-.227,1.146,4.423,4.423,0,0,0,.256,1.386l4.161,11.662A13.775,13.775,0,0,0,415.215,812Zm-9.482-11.321q-.369,1.288-1.048,3.184l-1.047,3h5.435l-1.047-3q-.708-2.039-1.076-3.256a17.413,17.413,0,0,1-.565-2.661h-.113A17.371,17.371,0,0,1,405.732,800.681Z" transform="translate(-320.645 -793.788)" fill="#2e76fa"/>
        <path id="Path_38" data-name="Path 38" d="M427.029,812.858a8.935,8.935,0,0,1-3.481-3.623,11.9,11.9,0,0,1,.1-10.685,8.909,8.909,0,0,1,3.722-3.609,11.911,11.911,0,0,1,5.6-1.26,17.569,17.569,0,0,1,4.982.708l.453,4.9-.057.028a5.466,5.466,0,0,0-2.279-1.981,7.19,7.19,0,0,0-3.127-.679,5.971,5.971,0,0,0-4.685,1.91,7.5,7.5,0,0,0-1.712,5.195,8.574,8.574,0,0,0,1.571,5.378,5.3,5.3,0,0,0,4.458,2.037,7.689,7.689,0,0,0,3.68-.806A8.44,8.44,0,0,0,438.946,808l.057.028-.679,5.068a18.084,18.084,0,0,1-6.029,1.076A10.3,10.3,0,0,1,427.029,812.858Z" transform="translate(-326.177 -793.68)" fill="#2e76fa"/>
        <path id="Path_39" data-name="Path 39" d="M463.166,812a7.634,7.634,0,0,0,1.444,1.8v.057h-6.4V813.8a1.549,1.549,0,0,0,.454-1.3,6.7,6.7,0,0,0-.454-2.179l-.254-.679h-7.3l-.255.679a5.93,5.93,0,0,0-.453,2.15,1.723,1.723,0,0,0,.4,1.331v.057H444.4V813.8a8.214,8.214,0,0,0,1.429-1.812,13.958,13.958,0,0,0,1.317-2.775l4.048-11.662a4.42,4.42,0,0,0,.255-1.386,2.849,2.849,0,0,0-.226-1.161,2.039,2.039,0,0,0-.538-.763v-.057h7.5v.057a2.361,2.361,0,0,0-.537.778,2.719,2.719,0,0,0-.226,1.146,4.42,4.42,0,0,0,.255,1.386l4.161,11.662A13.775,13.775,0,0,0,463.166,812Zm-9.482-11.321q-.369,1.288-1.047,3.184l-1.047,3h5.435l-1.047-3q-.708-2.039-1.076-3.256a17.316,17.316,0,0,1-.566-2.661h-.113A17.364,17.364,0,0,1,453.683,800.681Z" transform="translate(-330.893 -793.788)" fill="#2e76fa"/>
        <path id="Path_40" data-name="Path 40" d="M471.579,813.8a3.329,3.329,0,0,0,1.076-1.5,6.952,6.952,0,0,0,.453-2.689v-11.18a6.986,6.986,0,0,0-.468-2.632,3.3,3.3,0,0,0-1.061-1.557v-.057h8.209a10.969,10.969,0,0,1,5.194,1.175,8.267,8.267,0,0,1,3.439,3.383,10.758,10.758,0,0,1,1.217,5.265q0,4.728-2.576,7.289t-7.727,2.562h-7.756Zm8.038-2.746a5.3,5.3,0,0,0,4.332-1.811,8.021,8.021,0,0,0,1.5-5.237q0-3.594-1.472-5.307a5.613,5.613,0,0,0-4.5-1.712h-2.491v14.067Z" transform="translate(-336.703 -793.788)" fill="#2e76fa"/>
        <path id="Path_41" data-name="Path 41" d="M512.493,808.389l-.793,5.633a12.958,12.958,0,0,0-1.514-.185q-.722-.042-1.938-.042h-9.992v-.057a3.329,3.329,0,0,0,1.076-1.5,6.966,6.966,0,0,0,.453-2.689v-11.18a6.956,6.956,0,0,0-.453-2.7,3.329,3.329,0,0,0-1.076-1.485v-.057h10.161a14.551,14.551,0,0,0,3-.226l.48,5.068-.056.028a3.3,3.3,0,0,0-1.642-1.571,6.656,6.656,0,0,0-2.8-.524h-3.736v4.982h2.151q1.783,0,2.632-.042t1.783-.156l-.821,4.755h-.056a2.428,2.428,0,0,0-1.1-1.358,4.065,4.065,0,0,0-1.982-.425h-2.6v6.368h3.085a7.794,7.794,0,0,0,3.327-.679,5.824,5.824,0,0,0,2.364-1.981Z" transform="translate(-342.404 -793.726)" fill="#2e76fa"/>
        <path id="Path_42" data-name="Path 42" d="M518.882,813.8a6.818,6.818,0,0,0,1.16-1.769,7.153,7.153,0,0,0,.538-2.335l.736-10.983.028-.539a7.14,7.14,0,0,0-.382-2.349,2.856,2.856,0,0,0-1.175-1.584l.028-.057H526.3a1.01,1.01,0,0,0-.2.68,4.036,4.036,0,0,0,.651,1.9l2.8,4.812a13.358,13.358,0,0,1,1.755,4.67h.113a11,11,0,0,1,.75-2.137q.467-.977,1.344-2.533l2.774-4.9a4.121,4.121,0,0,0,.623-1.84.962.962,0,0,0-.2-.651h6.539l.028.057a2.973,2.973,0,0,0-1.3,1.826,7.2,7.2,0,0,0-.34,2.647l.877,10.983a8.007,8.007,0,0,0,.524,2.25,5.2,5.2,0,0,0,1.146,1.855l-.028.057h-6.482l-.028-.057a2.646,2.646,0,0,0,.679-1.133,5.363,5.363,0,0,0,.283-1.812,4.288,4.288,0,0,0-.028-.565l-.453-5.86q-.057-.961-.057-1.529a26.473,26.473,0,0,1,.226-3.34h-.113a19.531,19.531,0,0,1-.934,2.448q-.509,1.091-1.245,2.364l-3.142,5.322a8.61,8.61,0,0,0-1.33,3.424h-.227a8.826,8.826,0,0,0-1.415-3.4l-3.368-5.379a15.973,15.973,0,0,1-1.175-2.236,20.549,20.549,0,0,1-.863-2.547h-.113q.2,1.983.2,3.538c0,.623-.009,1.067-.028,1.33l-.311,5.86a6.761,6.761,0,0,0,.212,2.179,2.751,2.751,0,0,0,.722,1.331l-.028.057h-6.227Z" transform="translate(-346.813 -793.788)" fill="#2e76fa"/>
        <path id="Path_43" data-name="Path 43" d="M570.43,794.184v.057a11.041,11.041,0,0,0-2.265,2.886l-5.35,8.832v3.424a7.255,7.255,0,0,0,.5,2.874,3.017,3.017,0,0,0,1.231,1.543v.057H557.21V813.8a3.3,3.3,0,0,0,1.2-1.572,6.958,6.958,0,0,0,.524-2.845V806.1l-5.435-8.974a11.082,11.082,0,0,0-2.293-2.886v-.057h6.029v.057a1.777,1.777,0,0,0-.085.565,4.722,4.722,0,0,0,.736,2.321l2.18,3.765a9.77,9.77,0,0,1,.877,1.84h.113a7.1,7.1,0,0,1,.524-1.175q.3-.522.382-.665l2.151-3.765a4.794,4.794,0,0,0,.708-2.264,1.984,1.984,0,0,0-.085-.623v-.057Z" transform="translate(-353.722 -793.788)" fill="#2e76fa"/>
      </g>
    </g>
    <g id="Group_9" data-name="Group 9" transform="translate(7327.371 -279.622)">
      <path id="Path_8850" data-name="Path 8850" d="M264.016,839.428a16.169,16.169,0,1,1,16.169-16.169A16.169,16.169,0,0,1,264.016,839.428Zm0-30.636a14.467,14.467,0,1,0,14.467,14.467h0a14.484,14.484,0,0,0-14.467-14.467Z" transform="translate(-247.846 -807.09)" fill="url(#linear-gradient-28)"/>
      <path id="Path_8851" data-name="Path 8851" d="M262.889,827.981c-.2-.168-.4-.345-.605-.517q-.836-.708-1.674-1.415a.477.477,0,0,1-.163-.654l.014-.021a.466.466,0,0,1,.647-.129.481.481,0,0,1,.066.053c.529.441,1.052.889,1.578,1.334l.841.712,1.5-.8a8.915,8.915,0,0,1-.841-.565,3.918,3.918,0,0,1-1.44-4.1,4.019,4.019,0,0,1,3.14-3.124,4.307,4.307,0,0,1,5,2.412,4.1,4.1,0,0,1-1.766,5.193c-.09.051-.181.1-.293.163.214.091.406.165.591.255a5.576,5.576,0,0,1,2.919,3.248c.138.383.127.454-.208.679a9.773,9.773,0,0,1-8.51,1.186c-.652-.256-1.284-.565-1.915-.87-.305-.147-.311-.2-.23-.532a5.493,5.493,0,0,1,1.253-2.355c.032-.036.062-.074.093-.111C262.888,828.02,262.885,828.008,262.889,827.981Zm4.044-6.7h-.98c-.333,0-.668,0-1,0a1.169,1.169,0,0,0-1.194,1.142v.023q-.013.4,0,.793a1.162,1.162,0,0,0,1.16,1.166h.032q1.96.006,3.921,0a1.161,1.161,0,0,0,1.191-1.128v-.787a1.159,1.159,0,0,0-1.109-1.206h-.1C268.212,821.284,267.572,821.286,266.932,821.286Z" transform="translate(-250.525 -809.554)" fill="url(#linear-gradient-28)"/>
      <path id="Path_8852" data-name="Path 8852" d="M260.662,832.884v1.305a4.734,4.734,0,0,1-2.388-.326,2.253,2.253,0,0,1-1.081-1.694,14.867,14.867,0,0,1-.16-2.535c-.021-.652-.069-1.3-.14-1.952a2.674,2.674,0,0,0-.233-.752,1.683,1.683,0,0,0-1.509-1.014c-.063-.005-.125-.006-.187-.013a.251.251,0,0,1-.065-.028v-1.621a6.987,6.987,0,0,0,.762-.154,1.808,1.808,0,0,0,1.2-1.455,9.335,9.335,0,0,0,.183-2.217,12.572,12.572,0,0,1,.153-2.473,2.227,2.227,0,0,1,1.156-1.734,3.52,3.52,0,0,1,1.541-.295h.768v1.33c-.261.015-.524.009-.781.048-.885.138-1.1.487-1.181,1.328-.078.862-.062,1.736-.1,2.6a6.624,6.624,0,0,1-.349,2,2.971,2.971,0,0,1-1.614,1.714c-.061.028-.121.057-.185.09.293.182.586.338.848.535a3.117,3.117,0,0,1,1.137,1.974,16.888,16.888,0,0,1,.2,2.886,9.5,9.5,0,0,0,.138,1.447,1.072,1.072,0,0,0,1.071.932C260.113,832.849,260.382,832.863,260.662,832.884Z" transform="translate(-249.353 -808.978)" fill="url(#linear-gradient-30)"/>
      <path id="Path_8853" data-name="Path 8853" d="M278.214,825.055c-.212-.115-.417-.218-.609-.339a3.12,3.12,0,0,1-1.378-2.142,17.482,17.482,0,0,1-.2-2.866,13.905,13.905,0,0,0-.142-1.51.964.964,0,0,0-.821-.836c-.344-.069-.7-.087-1.066-.131v-1.3a4.974,4.974,0,0,1,2.355.313,1.869,1.869,0,0,1,1,1.274,8.573,8.573,0,0,1,.237,1.474c.049.812.011,1.629.062,2.441a7.19,7.19,0,0,0,.256,1.511,1.719,1.719,0,0,0,1.712,1.275c.041,0,.083,0,.142.007v1.649a6.7,6.7,0,0,0-.757.153,1.81,1.81,0,0,0-1.194,1.458,8.822,8.822,0,0,0-.183,1.966c-.014.73-.027,1.46-.075,2.188a3.34,3.34,0,0,1-.445,1.547,2.229,2.229,0,0,1-1.873.995c-.4.034-.8.006-1.226.006v-1.307c.245-.016.48-.02.713-.049.991-.125,1.184-.55,1.252-1.351.073-.865.057-1.737.1-2.6a6.67,6.67,0,0,1,.345-1.982,3.016,3.016,0,0,1,1.608-1.723l.172-.08S278.195,825.072,278.214,825.055Z" transform="translate(-253.436 -808.973)" fill="url(#linear-gradient-28)"/>
      <path id="Path_8854" data-name="Path 8854" d="M266.433,823.925c0-.047.007-.068.009-.087.03-.328.26-.575.513-.55a.587.587,0,0,1,.46.632.878.878,0,0,1-.068.26.442.442,0,0,1-.841,0A1.714,1.714,0,0,1,266.433,823.925Z" transform="translate(-251.819 -810.552)" fill="url(#linear-gradient-32)"/>
      <path id="Path_8855" data-name="Path 8855" d="M270.424,823.976a1.216,1.216,0,0,1-.086.255.422.422,0,0,1-.767.022.8.8,0,0,1-.1-.373.528.528,0,0,1,.472-.58l.02,0C270.23,823.312,270.44,823.59,270.424,823.976Z" transform="translate(-252.467 -810.554)" fill="url(#linear-gradient-33)"/>
    </g>
    <path id="Path_8849" data-name="Path 8849" d="M277.8,798.452c.827,1.548,1.681,3.082,2.523,4.622a.473.473,0,0,1,.094.43c-.433,1.255-.336,1.5.778,2.054.245.067.285.3.385.483.382.678.746,1.367,1.128,2.046.27.479.441,1.044,1.04,1.253a3.886,3.886,0,0,1,.371-.165c.554-.184.562-.466.276-.944-.6-1-1.134-2.046-1.7-3.07a1.092,1.092,0,0,1-.164-.711,1.138,1.138,0,0,0-.907-1.329,1.2,1.2,0,0,0-.206-.02.56.56,0,0,1-.547-.317q-1.3-2.421-2.643-4.823" transform="translate(7073.123 -1084.761)" fill="url(#linear-gradient-28)"/>
    <path id="Path_8849-2" data-name="Path 8849" d="M269.06,796.9c.513-.5,1.021-1.014,1.51-1.54a16.5,16.5,0,0,0,1.554-1.678c-.2,0-.313-.013-.429-.009-8.057.314-16.115.638-24.171.927a1.625,1.625,0,0,0-1.461.793q-6.9,9.993-13.837,19.957c-.058.079-.188.164-.06.316.142-.02.293-.035.442-.065,2.78-.575,5.564-1.132,8.336-1.743a.773.773,0,0,1,1.01.42.472.472,0,0,1,.024.066c.553,1.089,1.161,2.15,1.79,3.294a16.19,16.19,0,0,1,5.723-11.145l1.08-.878a16.032,16.032,0,0,1,5.429-2.5l1.368-.233a15.344,15.344,0,0,1,9.99,1.455c-.6-1.092-1.179-2.163-1.774-3.221-.153-.272-.191-.456.063-.705Z" transform="translate(7082.888 -1083.844)" fill="#2e76fa"/>
    <rect id="Rectangle_3" data-name="Rectangle 3" width="212.292" height="0.786" transform="translate(7368.464 -265.469)" fill="#1a1818"/>
  </g>
</svg>
